<?xml version="1.0" encoding="UTF-8"?>
<!DOCTYPE svg PUBLIC "-//W3C//DTD SVG 1.1//EN" "http://www.w3.org/Graphics/SVG/1.1/DTD/svg11.dtd">
<!-- Creator: CorelDRAW 2023 -->
<svg xmlns="http://www.w3.org/2000/svg" xml:space="preserve" width="266.447mm" height="40.7035mm" version="1.1" style="shape-rendering:geometricPrecision; text-rendering:geometricPrecision; image-rendering:optimizeQuality; fill-rule:evenodd; clip-rule:evenodd"
viewBox="0 0 30.8137 4.7072"
 xmlns:xlink="http://www.w3.org/1999/xlink"
 xmlns:xodm="http://www.corel.com/coreldraw/odm/2003">
 <defs>
  <style type="text/css">
   <![CDATA[
    .fil0 {fill:#D3AF37}
    .fil1 {fill:#FEFEFE;fill-rule:nonzero}
   ]]>
  </style>
 </defs>
 <g id="Layer_x0020_1">
  <metadata id="CorelCorpID_0Corel-Layer"/>
  <path class="fil0" d="M0.9592 4.6826c-0.0072,-0.081 -0.0508,-0.2178 -0.0707,-0.3017 -0.2388,-1.0081 -0.5519,-2.5994 -0.0877,-3.5271 0.0713,-0.1426 0.2237,-0.3106 0.4509,-0.2918 0.1726,0.0143 0.3922,0.1687 0.4961,0.2467 0.2824,0.2118 0.4987,0.4717 0.7159,0.77 0.1038,0.1425 0.1982,0.2933 0.2983,0.4452 0.0342,0.0519 0.0039,0.0839 -0.0236,0.1324 -0.2186,0.3854 -0.4772,0.9986 -0.6339,1.4009 -0.0893,0.2294 -0.3316,0.9086 -0.3574,1.1284l0.5705 -0.002c0.0261,-0.0474 0.0667,-0.206 0.0857,-0.2677 0.0829,-0.2688 0.1747,-0.5182 0.2749,-0.7797 0.0617,-0.161 0.3652,-0.8885 0.4362,-0.9656 0.1351,0.1498 0.5317,1.2359 0.621,1.491 0.0608,0.1737 0.115,0.3476 0.1809,0.5215l0.5689 0.0011c-0.0121,-0.091 -0.0564,-0.2086 -0.082,-0.2973 -0.1796,-0.6228 -0.4579,-1.2995 -0.7341,-1.8708 -0.0415,-0.0858 -0.0845,-0.1658 -0.1264,-0.2505 -0.0651,-0.1315 -0.119,-0.1755 -0.0812,-0.236 0.1405,-0.2252 0.2961,-0.4542 0.4592,-0.6614 0.2274,-0.2889 0.6801,-0.7554 1.0607,-0.8018 0.5996,-0.0732 0.6706,1.1363 0.6758,1.5459 0.0091,0.7122 -0.1031,1.3083 -0.251,1.9797 -0.0405,0.1839 -0.0901,0.4147 -0.1458,0.5934l0.5754 -0.002c0.0341,-0.1597 0.086,-0.325 0.125,-0.4885 0.2493,-1.0454 0.462,-2.7504 -0.0652,-3.6474 -0.3961,-0.6739 -1.0242,-0.6628 -1.6276,-0.2857 -0.1434,0.0896 -0.3855,0.2934 -0.4975,0.4176 -0.226,0.2509 -0.3325,0.3913 -0.5381,0.6678 -0.0412,0.0554 -0.0798,0.1179 -0.1252,0.1694 -0.0929,-0.1121 -0.1672,-0.2386 -0.2595,-0.3543 -0.2847,-0.3566 -0.4828,-0.6372 -0.9001,-0.9087 -0.2399,-0.1561 -0.5826,-0.3127 -0.945,-0.2312 -0.3238,0.0727 -0.5518,0.2916 -0.6746,0.531 -0.4621,0.9003 -0.3556,2.1383 -0.1663,3.1559 0.0594,0.3192 0.1362,0.6796 0.2304,0.9744l0.5672 -0.001z"/>
  <g id="_2479527864288">
   <path class="fil1" d="M6.792 3.557l0.2099 0 0 -1.9896 0.925 1.7588 0.173 0 0.925 -1.7588 0 1.9896 0.2099 0 0 -2.3725 -0.2469 0 -0.9739 1.8781 -0.9751 -1.8781 -0.2469 0 0 2.3725zm4.5259 -0.8391c0,-0.5046 -0.3894,-0.8708 -0.8904,-0.8708 -0.501,0 -0.8904,0.3662 -0.8904,0.8708 0,0.5046 0.3895,0.8707 0.8904,0.8707 0.501,0 0.8904,-0.3662 0.8904,-0.8707zm-0.8904 -0.6787c0.3906,0 0.6805,0.2887 0.6805,0.6787 0,0.3865 -0.2934,0.6787 -0.6805,0.6787 -0.3871,0 -0.6805,-0.2922 -0.6805,-0.6787 0,-0.3883 0.2916,-0.6787 0.6805,-0.6787zm1.3603 1.5178l0 -0.3179c0.0662,0.105 0.161,0.1903 0.2833,0.2547 0.1223,0.0614 0.2606,0.0948 0.4127,0.0948 0.2415,0 0.4443,-0.0835 0.6065,-0.2511 0.1628,-0.167 0.2433,-0.3728 0.2433,-0.6179 0,-0.2451 -0.0805,-0.4527 -0.2433,-0.6215 -0.1622,-0.1676 -0.365,-0.2511 -0.6065,-0.2511 -0.1521,0 -0.2904,0.0334 -0.4127,0.0996 -0.1223,0.0662 -0.2171,0.1515 -0.2833,0.2576l0 -1.1051 -0.2099 0 0 2.4578 0.2099 0zm0.6823 -1.5178c0.1867,0 0.3441,0.0644 0.47,0.1956 0.124,0.1306 0.1873,0.2928 0.1873,0.4867 0,0.1914 -0.0632,0.3519 -0.1873,0.4831 -0.1258,0.1276 -0.2833,0.192 -0.47,0.192 -0.198,0 -0.362,-0.0644 -0.4932,-0.195 -0.133,-0.1306 -0.1998,-0.2904 -0.1998,-0.4819 0,-0.1932 0.0668,-0.3549 0.1998,-0.4855 0.1312,-0.1306 0.2952,-0.195 0.4932,-0.195zm1.1265 1.5178l0.2099 0 0 -1.6783 -0.2099 0 0 1.6783zm0.0107 -2.1482c0.0489,0.0489 0.1396,0.0489 0.1903,0 0.0489,-0.0483 0.0489,-0.139 0,-0.1873 -0.0507,-0.0489 -0.1414,-0.0489 -0.1903,0 -0.0465,0.0483 -0.0465,0.139 0.0024,0.1873l-0.0024 0zm0.7937 2.1482l0 -2.4601 -0.2099 0 0 2.4601 0.2099 0zm0.2623 -0.8397c0,0.2457 0.0841,0.4509 0.2511,0.6185 0.1664,0.1694 0.3781,0.2529 0.6322,0.2529 0.2922,0 0.5845,-0.1223 0.7491,-0.3698l-0.1557 -0.1133c-0.1402,0.1831 -0.3537,0.291 -0.5898,0.291 -0.3644,0 -0.6477,-0.2648 -0.6721,-0.6274l1.4522 0c0.0072,-0.0489 0.0107,-0.0978 0.0107,-0.1449 -0.0018,-0.2207 -0.0751,-0.4044 -0.2219,-0.5541 -0.1473,-0.1479 -0.3453,-0.2231 -0.5916,-0.2231 -0.501,0 -0.8642,0.3763 -0.8642,0.8702zm0.8642 -0.6781c0.3268,0 0.5898,0.2225 0.6071,0.5523l-1.2447 0c0.0263,-0.3405 0.3048,-0.5523 0.6376,-0.5523z"/>
   <path class="fil1" d="M29.884 3.0785c0.0861,0 0.1628,-0.0173 0.2301,-0.052 0.0672,-0.0347 0.1198,-0.0835 0.1576,-0.1465 0.0378,-0.063 0.0567,-0.1355 0.0567,-0.2175 0,-0.084 -0.0189,-0.1571 -0.0567,-0.219 -0.0378,-0.062 -0.0903,-0.1103 -0.1576,-0.145 -0.0672,-0.0347 -0.1439,-0.052 -0.2301,-0.052 -0.0861,0 -0.1628,0.0173 -0.2301,0.052 -0.0672,0.0347 -0.1203,0.083 -0.1592,0.145 -0.0389,0.062 -0.0583,0.135 -0.0583,0.219 0,0.0819 0.0194,0.1544 0.0583,0.2175 0.0389,0.063 0.0919,0.1119 0.1592,0.1465 0.0672,0.0347 0.1439,0.052 0.2301,0.052zm-0.0977 0.4034c-0.1576,0 -0.2999,-0.0341 -0.427,-0.1024 -0.1271,-0.0683 -0.229,-0.1639 -0.3057,-0.2868 -0.0767,-0.1229 -0.115,-0.2663 -0.115,-0.4302 0,-0.166 0.0383,-0.3104 0.115,-0.4333 0.0767,-0.1229 0.1786,-0.218 0.3057,-0.2852 0.1271,-0.0672 0.2695,-0.1008 0.427,-0.1008 0.1429,0 0.2689,0.0289 0.3782,0.0867 0.0712,0.0377 0.1321,0.0887 0.1828,0.1531l0 -0.2145 0.4664 0 0 1.4119c0,0.3152 -0.0819,0.5473 -0.2458,0.6965 -0.1639,0.1492 -0.3992,0.2238 -0.706,0.2238 -0.1597,0 -0.3136,-0.0194 -0.4617,-0.0583 -0.1481,-0.0389 -0.2716,-0.0972 -0.3703,-0.1749l0.1954 -0.353c0.0714,0.0588 0.1623,0.1056 0.2726,0.1402 0.1103,0.0347 0.219,0.052 0.3262,0.052 0.1744,0 0.301,-0.0389 0.3798,-0.1166 0.0788,-0.0777 0.1182,-0.1933 0.1182,-0.3467l0 -0.0739c-0.0453,0.0507 -0.0978,0.0921 -0.1576,0.1243 -0.1093,0.0588 -0.2353,0.0882 -0.3782,0.0882zm-2.8261 0.0819l0 -1.6956 0.4696 0 0 0.2014 0 0c0.0486,-0.0542 0.1064,-0.0993 0.1733,-0.1352 0.1135,-0.0609 0.2427,-0.0914 0.3876,-0.0914 0.1345,0 0.2548,0.0268 0.3609,0.0804 0.1061,0.0536 0.1896,0.1355 0.2506,0.2458 0.0609,0.1103 0.0914,0.2516 0.0914,0.4239l0 0.9707 -0.4916 0 0 -0.8951c0,-0.1366 -0.0299,-0.2374 -0.0898,-0.3026 -0.0599,-0.0651 -0.1445,-0.0977 -0.2537,-0.0977 -0.0777,0 -0.1476,0.0163 -0.2096,0.0488 -0.062,0.0326 -0.1103,0.0825 -0.145,0.1497 -0.0347,0.0672 -0.052,0.1534 -0.052,0.2584l0 0.8383 -0.4916 0zm-0.6168 -1.9319c-0.0903,0 -0.1639,-0.0263 -0.2206,-0.0788 -0.0567,-0.0525 -0.0851,-0.1177 -0.0851,-0.1954 0,-0.0777 0.0284,-0.1429 0.0851,-0.1954 0.0567,-0.0525 0.1303,-0.0788 0.2206,-0.0788 0.0903,0 0.1639,0.0247 0.2206,0.0741 0.0567,0.0494 0.0851,0.1129 0.0851,0.1907 0,0.0819 -0.0278,0.1497 -0.0835,0.2033 -0.0557,0.0536 -0.1297,0.0804 -0.2222,0.0804zm-0.2458 1.9319l0 -1.6956 0.4917 0 0 1.6956 -0.4917 0zm-0.8626 0l0 -2.3385 0.4916 0 0 2.3385 -0.4916 0zm-0.6168 -1.9319c-0.0904,0 -0.1639,-0.0263 -0.2206,-0.0788 -0.0567,-0.0525 -0.0851,-0.1177 -0.0851,-0.1954 0,-0.0777 0.0284,-0.1429 0.0851,-0.1954 0.0567,-0.0525 0.1303,-0.0788 0.2206,-0.0788 0.0903,0 0.1639,0.0247 0.2206,0.0741 0.0567,0.0494 0.0851,0.1129 0.0851,0.1907 0,0.0819 -0.0278,0.1497 -0.0835,0.2033 -0.0557,0.0536 -0.1297,0.0804 -0.2222,0.0804zm-0.2458 1.9319l0 -1.6956 0.4916 0 0 1.6956 -0.4916 0zm-0.8185 0l0 -0.2107c-0.037,0.0622 -0.0874,0.1125 -0.1513,0.1508 -0.0945,0.0567 -0.2164,0.0851 -0.3656,0.0851 -0.1324,0 -0.2458,-0.0226 -0.3404,-0.0678 -0.0946,-0.0452 -0.167,-0.1066 -0.2175,-0.1844 -0.0504,-0.0777 -0.0756,-0.1649 -0.0756,-0.2616 0,-0.1009 0.0247,-0.1891 0.0741,-0.2647 0.0494,-0.0756 0.1276,-0.135 0.2348,-0.1781 0.1072,-0.0431 0.2469,-0.0646 0.4192,-0.0646l0.3908 0c0,-0.1051 -0.032,-0.187 -0.0961,-0.2458 -0.0641,-0.0588 -0.1623,-0.0883 -0.2947,-0.0883 -0.0903,0 -0.1791,0.0142 -0.2663,0.0425 -0.0872,0.0284 -0.1613,0.0667 -0.2222,0.115l-0.1765 -0.3435c0.0924,-0.0651 0.2038,-0.1156 0.3341,-0.1513 0.1303,-0.0357 0.2626,-0.0536 0.3971,-0.0536 0.2584,0 0.4591,0.0609 0.602,0.1828 0.1429,0.1219 0.2143,0.312 0.2143,0.5704l0 0.9675 -0.4601 0zm-0.0315 -0.5358l0 -0.1733 -0.3372 0c-0.1156,0 -0.1949,0.0189 -0.2379,0.0567 -0.0431,0.0378 -0.0646,0.0851 -0.0646,0.1418 0,0.063 0.0247,0.1129 0.0741,0.1497 0.0494,0.0368 0.1171,0.0552 0.2033,0.0552 0.0819,0 0.1555,-0.0194 0.2206,-0.0583 0.0651,-0.0389 0.1124,-0.0961 0.1418,-0.1718zm-1.5434 0.561c-0.1996,0 -0.3551,-0.051 -0.4664,-0.1529 -0.1114,-0.1019 -0.167,-0.2537 -0.167,-0.4554l0 -0.7343 -0.2616 0 0 -0.3782 0.2616 0 0 -0.375 0.4916 0 0 0.375 0.4223 0 0 0.3782 -0.4223 0 0 0.728c0,0.0714 0.0189,0.1266 0.0567,0.1655 0.0378,0.0389 0.0893,0.0583 0.1544,0.0583 0.0777,0 0.1439,-0.021 0.1986,-0.063l0.1324 0.3467c-0.0504,0.0357 -0.1108,0.0625 -0.1812,0.0804 -0.0704,0.0179 -0.1434,0.0268 -0.219,0.0268zm-1.7545 0c-0.1933,0 -0.363,-0.0378 -0.509,-0.1135 -0.146,-0.0756 -0.259,-0.1791 -0.3388,-0.3104 -0.0798,-0.1313 -0.1198,-0.281 -0.1198,-0.4491 0,-0.1702 0.0394,-0.3209 0.1182,-0.4523 0.0788,-0.1313 0.1865,-0.2343 0.323,-0.3089 0.1366,-0.0746 0.291,-0.1119 0.4633,-0.1119 0.166,0 0.3157,0.0352 0.4491,0.1056 0.1334,0.0704 0.239,0.1712 0.3167,0.3026 0.0777,0.1313 0.1166,0.2884 0.1166,0.4712 0,0.0189 -0.0011,0.0404 -0.0032,0.0646 -0.0021,0.0242 -0.0042,0.0467 -0.0063,0.0678l-1.0206 0 -0.221 0 -0.0409 0c0.0102,0.0448 0.0264,0.0862 0.0486,0.1245 0.041,0.0704 0.0988,0.124 0.1733,0.1607 0.0746,0.0368 0.1623,0.0552 0.2632,0.0552 0.0903,0 0.1697,-0.0137 0.2379,-0.041 0.0683,-0.0273 0.1308,-0.0683 0.1875,-0.1229l0.2616 0.2836c-0.0777,0.0882 -0.1754,0.156 -0.2931,0.2033 -0.1177,0.0473 -0.2532,0.0709 -0.4066,0.0709zm-0.4316 -1.0211l0.221 0 0.567 0c-0.008,-0.0534 -0.0238,-0.1017 -0.0475,-0.145 -0.0357,-0.0651 -0.0851,-0.1161 -0.1481,-0.1529 -0.063,-0.0368 -0.1366,-0.0552 -0.2206,-0.0552 -0.084,0 -0.1581,0.0184 -0.2222,0.0552 -0.0641,0.0368 -0.114,0.0883 -0.1497,0.1544 -0.0231,0.0428 -0.0387,0.0906 -0.0469,0.1434l0.047 0zm-2.3819 0.5767l0.4664 0c0.1471,0 0.2747,-0.0278 0.3829,-0.0835 0.1082,-0.0557 0.1923,-0.135 0.2521,-0.238 0.0599,-0.1029 0.0898,-0.2238 0.0898,-0.3624 0,-0.1408 -0.0299,-0.2621 -0.0898,-0.364 -0.0599,-0.1019 -0.1439,-0.1807 -0.2521,-0.2364 -0.1082,-0.0557 -0.2359,-0.0835 -0.3829,-0.0835l-0.4664 0 0 1.3678zm-0.5106 0.4192l0 -2.2061 1.0022 0c0.2395,0 0.4507,0.0457 0.6335,0.1371 0.1828,0.0914 0.3257,0.219 0.4286,0.3829 0.1029,0.1639 0.1544,0.3582 0.1544,0.583 0,0.2227 -0.0515,0.4165 -0.1544,0.5815 -0.1029,0.1649 -0.2458,0.2931 -0.4286,0.3845 -0.1828,0.0914 -0.394,0.1371 -0.6335,0.1371l-1.0022 0z"/>
   <path class="fil1" d="M25.3451 4.6811c0.0146,0.0152 0.0321,0.0222 0.0544,0.0223 0.0222,0 0.0397,-0.007 0.0544,-0.0222 0.0282,-0.0293 0.0283,-0.0789 0.0001,-0.1079 -0.0146,-0.0146 -0.0321,-0.0215 -0.0544,-0.0215 -0.0222,-0 -0.0397,0.0068 -0.0544,0.0214 -0.0282,0.029 -0.0283,0.0787 -0.0001,0.1079z"/>
   <path id="_1" class="fil1" d="M25.8987 4.7068c0.0714,0 0.138,-0.0174 0.1984,-0.0519 0.0607,-0.0342 0.1051,-0.0807 0.1349,-0.1395l-0.0972 -0.0597c-0.0484,0.0849 -0.1357,0.1382 -0.2361,0.1381 -0.0774,-0 -0.1408,-0.026 -0.192,-0.078 -0.0512,-0.0512 -0.0765,-0.1153 -0.0765,-0.1911 0,-0.0758 0.0262,-0.139 0.0783,-0.191 0.052,-0.052 0.1156,-0.0778 0.1898,-0.0778 0.1035,0.0001 0.1876,0.0526 0.2396,0.1423l0.0975 -0.0598c-0.0324,-0.0617 -0.0781,-0.1098 -0.1371,-0.1441 -0.0588,-0.0345 -0.1254,-0.0513 -0.1999,-0.0513 -0.1093,-0.0001 -0.2013,0.0365 -0.2763,0.1096 -0.0758,0.0742 -0.1135,0.1643 -0.1136,0.272 -0.0001,0.1077 0.0375,0.1979 0.1117,0.2713 0.0742,0.074 0.1677,0.1107 0.2785,0.1107z"/>
   <path id="_2" class="fil1" d="M26.9299 4.5976c0.0743,-0.0734 0.112,-0.1643 0.112,-0.272 0.0001,-0.1077 -0.0375,-0.1987 -0.1117,-0.2721 -0.0744,-0.0732 -0.168,-0.1099 -0.2791,-0.1099 -0.1111,-0.0001 -0.2047,0.0365 -0.2792,0.1096 -0.0743,0.0734 -0.112,0.1643 -0.112,0.272 -0.0001,0.1077 0.0375,0.1986 0.1117,0.2721 0.0744,0.0732 0.168,0.1099 0.2791,0.1099 0.1111,0.0001 0.2047,-0.0365 0.2792,-0.1096zm-0.4715 -0.4642c0.0515,-0.0512 0.1153,-0.077 0.1927,-0.077 0.0774,0 0.1411,0.026 0.1923,0.0772 0.0515,0.052 0.0768,0.1161 0.0767,0.1919 -0,0.0758 -0.0254,0.1398 -0.0769,0.191 -0.0513,0.052 -0.115,0.0778 -0.1924,0.0778 -0.0774,-0 -0.1411,-0.026 -0.1926,-0.078 -0.0512,-0.0513 -0.0765,-0.1153 -0.0765,-0.1911 0,-0.0758 0.0254,-0.1398 0.0767,-0.1918z"/>
   <path id="_3" class="fil1" d="M27.0973 4.6821c0.0146,0.0152 0.0321,0.0222 0.0544,0.0223 0.0222,0 0.0397,-0.007 0.0544,-0.0222 0.0282,-0.0292 0.0283,-0.0789 0.0001,-0.1079 -0.0146,-0.0147 -0.0321,-0.0215 -0.0544,-0.0215 -0.0222,-0 -0.0397,0.0068 -0.0544,0.0214 -0.0282,0.029 -0.0283,0.0787 -0.0001,0.1079z"/>
   <path id="_4" class="fil1" d="M27.4601 4.2787c0,-0.0651 0.0223,-0.1186 0.066,-0.1591 0.0437,-0.0405 0.0973,-0.0611 0.1615,-0.0611 0.1341,0.0001 0.2075,0.0751 0.2074,0.2181l-0.0002 0.4171 0.1218 0.0001 0.0003 -0.4469c0,-0.0941 -0.0274,-0.1683 -0.0819,-0.2227 -0.0551,-0.0533 -0.1309,-0.08 -0.2281,-0.0801 -0.0559,-0 -0.1048,0.0114 -0.1477,0.0349 -0.0437,0.0238 -0.0758,0.0541 -0.0981,0.0901l0.0001 -0.1111 -0.1226 -0.0001 -0.0004 0.7355 0.1218 0.0001 0.0002 -0.4148z"/>
   <polygon id="_5" class="fil1" points="28.6716,4.6942 28.6717,4.5891 28.2504,4.5889 28.6498,4.0614 28.6498,3.9587 28.1146,3.9584 28.1145,4.0635 28.5084,4.0637 28.1087,4.5912 28.1087,4.6939 "/>
  </g>
 </g>
</svg>
