<?xml version="1.0" encoding="UTF-8"?>
<!DOCTYPE svg PUBLIC "-//W3C//DTD SVG 1.1//EN" "http://www.w3.org/Graphics/SVG/1.1/DTD/svg11.dtd">
<!-- Creator: CorelDRAW 2023 -->
<svg xmlns="http://www.w3.org/2000/svg" xml:space="preserve" width="682.188mm" height="161.51mm" version="1.1" style="shape-rendering:geometricPrecision; text-rendering:geometricPrecision; image-rendering:optimizeQuality; fill-rule:evenodd; clip-rule:evenodd"
viewBox="0 0 51.4929 12.1911"
 xmlns:xlink="http://www.w3.org/1999/xlink"
 xmlns:xodm="http://www.corel.com/coreldraw/odm/2003">
 <defs>
  <style type="text/css">
   <![CDATA[
    .fil1 {fill:#00AFEF}
    .fil0 {fill:#FEFEFE;fill-rule:nonzero}
   ]]>
  </style>
 </defs>
 <g id="Layer_x0020_1">
  <metadata id="CorelCorpID_0Corel-Layer"/>
  <path class="fil0" d="M15.3786 5.1074l0.4358 0 0 -4.1305 1.9204 3.6513 0.3591 0 1.9204 -3.6513 0 4.1305 0.4358 0 0 -4.9254 -0.5126 0 -2.0219 3.8989 -2.0244 -3.8989 -0.5126 0 0 4.9254zm9.3961 -1.7421c0,-1.0475 -0.8085,-1.8077 -1.8486,-1.8077 -1.04,0 -1.8486,0.7602 -1.8486,1.8077 0,1.0475 0.8085,1.8077 1.8486,1.8077 1.0401,0 1.8486,-0.7602 1.8486,-1.8077zm-1.8486 -1.409c0.811,0 1.4127,0.5993 1.4127,1.409 0,0.8023 -0.6092,1.409 -1.4127,1.409 -0.8036,0 -1.4127,-0.6067 -1.4127,-1.409 0,-0.806 0.6054,-1.409 1.4127,-1.409zm2.824 3.1511l0 -0.6599c0.1374,0.2179 0.3343,0.395 0.5881,0.5287 0.2538,0.1275 0.5411,0.1969 0.8568,0.1969 0.5014,0 0.9224,-0.1733 1.2592,-0.5213 0.338,-0.3467 0.5052,-0.7738 0.5052,-1.2827 0,-0.5089 -0.1671,-0.9398 -0.5052,-1.2902 -0.3368,-0.3479 -0.7577,-0.5213 -1.2592,-0.5213 -0.3157,0 -0.603,0.0693 -0.8568,0.2068 -0.2538,0.1374 -0.4507,0.3145 -0.5881,0.5349l0 -2.2943 -0.4358 0 0 5.1024 0.4358 0zm1.4164 -3.1511c0.3875,0 0.7144,0.1337 0.9757,0.4061 0.2575,0.2712 0.3888,0.6079 0.3888,1.0103 0,0.3974 -0.1312,0.7305 -0.3888,1.0029 -0.2613,0.265 -0.5881,0.3987 -0.9757,0.3987 -0.4111,0 -0.7516,-0.1337 -1.024,-0.4049 -0.2761,-0.2712 -0.4148,-0.603 -0.4148,-1.0004 0,-0.4012 0.1387,-0.7367 0.4148,-1.0079 0.2724,-0.2712 0.6129,-0.4049 1.024,-0.4049zm2.3386 3.1511l0.4358 0 0 -3.4841 -0.4358 0 0 3.4841zm0.0223 -4.4598c0.1015,0.1015 0.2897,0.1015 0.395,0 0.1015,-0.1003 0.1015,-0.2885 0,-0.3888 -0.1052,-0.1015 -0.2934,-0.1015 -0.395,0 -0.0966,0.1003 -0.0966,0.2885 0.005,0.3888l-0.005 0zm1.6477 4.4598l0 -5.1074 -0.4358 0 0 5.1074 0.4358 0zm0.5445 -1.7433c0,0.5101 0.1746,0.936 0.5213,1.284 0.3454,0.3516 0.785,0.525 1.3124,0.525 0.6067,0 1.2134,-0.2538 1.5551,-0.7677l-0.3232 -0.2352c-0.291,0.3801 -0.7342,0.6042 -1.2245,0.6042 -0.7565,0 -1.3446,-0.5497 -1.3954,-1.3025l3.0149 0c0.0149,-0.1015 0.0223,-0.2031 0.0223,-0.3009 -0.0037,-0.4581 -0.156,-0.8395 -0.4606,-1.1502 -0.3058,-0.3071 -0.7169,-0.4631 -1.2282,-0.4631 -1.04,0 -1.7941,0.7813 -1.7941,1.8065zm1.7941 -1.4078c0.6785,0 1.2245,0.4618 1.2604,1.1465l-2.584 0c0.0545,-0.707 0.6327,-1.1465 1.3236,-1.1465z"/>
  <path class="fil0" d="M42.3334 9.8618c0.1788,0 0.338,-0.036 0.4776,-0.108 0.1396,-0.072 0.2486,-0.1734 0.3271,-0.3042 0.0785,-0.1309 0.1178,-0.2813 0.1178,-0.4515 0,-0.1745 -0.0393,-0.3261 -0.1178,-0.4547 -0.0785,-0.1287 -0.1876,-0.229 -0.3271,-0.301 -0.1396,-0.072 -0.2988,-0.108 -0.4776,-0.108 -0.1788,0 -0.338,0.036 -0.4776,0.108 -0.1396,0.072 -0.2497,0.1723 -0.3304,0.301 -0.0807,0.1287 -0.121,0.2802 -0.121,0.4547 0,0.1701 0.0403,0.3206 0.121,0.4515 0.0807,0.1309 0.1908,0.2323 0.3304,0.3042 0.1396,0.072 0.2988,0.108 0.4776,0.108zm-0.2028 0.8375c-0.3271,0 -0.6227,-0.0709 -0.8866,-0.2126 -0.2639,-0.1418 -0.4754,-0.3402 -0.6347,-0.5954 -0.1592,-0.2552 -0.2388,-0.5529 -0.2388,-0.8931 0,-0.3446 0.0796,-0.6445 0.2388,-0.8996 0.1592,-0.2552 0.3708,-0.4526 0.6347,-0.5921 0.2639,-0.1396 0.5594,-0.2094 0.8866,-0.2094 0.2966,0 0.5583,0.06 0.7851,0.1799 0.1478,0.0782 0.2743,0.1841 0.3795,0.3178l0 -0.4454 0.9683 0 0 2.9312c0,0.6543 -0.1701,1.1363 -0.5103,1.446 -0.3402,0.3097 -0.8288,0.4645 -1.4656,0.4645 -0.3315,0 -0.651,-0.0404 -0.9585,-0.121 -0.3075,-0.0807 -0.5638,-0.2017 -0.7688,-0.3631l0.4057 -0.7328c0.1483,0.1221 0.337,0.2192 0.566,0.2912 0.229,0.072 0.4547,0.108 0.6772,0.108 0.362,0 0.6248,-0.0807 0.7884,-0.2421 0.1636,-0.1614 0.2454,-0.4013 0.2454,-0.7197l0 -0.1534c-0.094,0.1053 -0.2031,0.1913 -0.3271,0.2581 -0.2268,0.1221 -0.4885,0.1832 -0.7851,0.1832zm-5.8671 0.1701l0 -3.5201 0.9749 0 0 0.4181 0 0c0.101,-0.1125 0.2209,-0.2061 0.3599,-0.2807 0.2355,-0.1265 0.5038,-0.1897 0.8048,-0.1897 0.2792,0 0.5289,0.0556 0.7492,0.1668 0.2203,0.1112 0.3937,0.2813 0.5202,0.5103 0.1265,0.229 0.1897,0.5223 0.1897,0.88l0 2.0152 -1.0207 0 0 -1.8582c0,-0.2835 -0.0622,-0.4929 -0.1865,-0.6281 -0.1243,-0.1352 -0.2999,-0.2028 -0.5267,-0.2028 -0.1614,0 -0.3064,0.0338 -0.4351,0.1014 -0.1287,0.0676 -0.229,0.1712 -0.301,0.3108 -0.072,0.1396 -0.108,0.3184 -0.108,0.5365l0 1.7404 -1.0207 0zm-1.2805 -4.0108c-0.1876,0 -0.3402,-0.0545 -0.458,-0.1636 -0.1178,-0.109 -0.1767,-0.2443 -0.1767,-0.4057 0,-0.1614 0.0589,-0.2966 0.1767,-0.4057 0.1178,-0.109 0.2704,-0.1636 0.458,-0.1636 0.1876,0 0.3402,0.0513 0.458,0.1538 0.1178,0.1025 0.1767,0.2345 0.1767,0.3958 0,0.1701 -0.0578,0.3108 -0.1734,0.422 -0.1156,0.1112 -0.2693,0.1668 -0.4613,0.1668zm-0.5103 4.0108l0 -3.5201 1.0207 0 0 3.5201 -1.0207 0zm-1.7909 0l0 -4.8548 1.0207 0 0 4.8548 -1.0207 0zm-1.2805 -4.0108c-0.1876,0 -0.3402,-0.0545 -0.458,-0.1636 -0.1178,-0.109 -0.1767,-0.2443 -0.1767,-0.4057 0,-0.1614 0.0589,-0.2966 0.1767,-0.4057 0.1178,-0.109 0.2704,-0.1636 0.458,-0.1636 0.1876,0 0.3402,0.0513 0.458,0.1538 0.1178,0.1025 0.1767,0.2345 0.1767,0.3958 0,0.1701 -0.0578,0.3108 -0.1734,0.422 -0.1156,0.1112 -0.2693,0.1668 -0.4613,0.1668zm-0.5103 4.0108l0 -3.5201 1.0207 0 0 3.5201 -1.0207 0zm-1.6993 0l0 -0.4374c-0.0768,0.1292 -0.1815,0.2336 -0.3141,0.3131 -0.1963,0.1178 -0.4493,0.1767 -0.759,0.1767 -0.2748,0 -0.5103,-0.0469 -0.7066,-0.1407 -0.1963,-0.0938 -0.3468,-0.2214 -0.4515,-0.3828 -0.1047,-0.1614 -0.157,-0.3424 -0.157,-0.5431 0,-0.2094 0.0513,-0.3926 0.1538,-0.5496 0.1025,-0.157 0.265,-0.2802 0.4874,-0.3697 0.2225,-0.0894 0.5125,-0.1341 0.8702,-0.1341l0.8113 0c0,-0.2181 -0.0665,-0.3882 -0.1996,-0.5103 -0.133,-0.1221 -0.337,-0.1832 -0.6118,-0.1832 -0.1876,0 -0.3718,0.0294 -0.5529,0.0883 -0.181,0.0589 -0.3348,0.1385 -0.4613,0.2388l-0.3664 -0.7132c0.1919,-0.1352 0.4231,-0.2399 0.6935,-0.3141 0.2704,-0.0742 0.5452,-0.1112 0.8244,-0.1112 0.5365,0 0.9531,0.1265 1.2497,0.3795 0.2966,0.253 0.4449,0.6477 0.4449,1.1843l0 2.0087 -0.9553 0zm-0.0654 -1.1123l0 -0.3599 -0.7001 0c-0.2399,0 -0.4046,0.0393 -0.494,0.1178 -0.0894,0.0785 -0.1341,0.1767 -0.1341,0.2944 0,0.1309 0.0513,0.2344 0.1538,0.3108 0.1025,0.0763 0.2432,0.1145 0.422,0.1145 0.1701,0 0.3228,-0.0403 0.458,-0.121 0.1352,-0.0807 0.2334,-0.1996 0.2944,-0.3566zm-3.2041 1.1646c-0.4144,0 -0.7372,-0.1058 -0.9683,-0.3173 -0.2312,-0.2116 -0.3468,-0.5267 -0.3468,-0.9454l0 -1.5245 -0.5431 0 0 -0.7851 0.5431 0 0 -0.7786 1.0207 0 0 0.7786 0.8767 0 0 0.7851 -0.8767 0 0 1.5114c0,0.1483 0.0393,0.2628 0.1178,0.3435 0.0785,0.0807 0.1854,0.121 0.3206,0.121 0.1614,0 0.2988,-0.0436 0.4122,-0.1309l0.2748 0.7197c-0.1047,0.0742 -0.2301,0.1298 -0.3762,0.1668 -0.1461,0.0371 -0.2977,0.0556 -0.4547,0.0556zm-3.6425 0c-0.4013,0 -0.7535,-0.0785 -1.0567,-0.2355 -0.3032,-0.157 -0.5376,-0.3718 -0.7034,-0.6445 -0.1658,-0.2726 -0.2486,-0.5834 -0.2486,-0.9324 0,-0.3533 0.0818,-0.6663 0.2454,-0.9389 0.1636,-0.2726 0.3871,-0.4863 0.6706,-0.6412 0.2835,-0.1549 0.6041,-0.2323 0.9618,-0.2323 0.3446,0 0.6554,0.0731 0.9324,0.2192 0.277,0.1461 0.4962,0.3555 0.6576,0.6281 0.1614,0.2726 0.2421,0.5987 0.2421,0.9782 0,0.0393 -0.0022,0.084 -0.0065,0.1341 -0.0044,0.0502 -0.0087,0.0971 -0.0131,0.1407l-2.1188 0 -0.4587 0 -0.0849 0c0.0211,0.0929 0.0548,0.1791 0.101,0.2584 0.0851,0.1461 0.205,0.2573 0.3599,0.3337 0.1549,0.0763 0.337,0.1145 0.5463,0.1145 0.1876,0 0.3522,-0.0284 0.494,-0.0851 0.1418,-0.0567 0.2715,-0.1418 0.3893,-0.2552l0.5431 0.5889c-0.1614,0.1832 -0.3642,0.3239 -0.6085,0.422 -0.2443,0.0981 -0.5256,0.1472 -0.844,0.1472zm-0.8961 -2.1199l0.4587 0 1.1772 0c-0.0165,-0.1109 -0.0494,-0.2112 -0.0986,-0.301 -0.0741,-0.1352 -0.1767,-0.241 -0.3075,-0.3173 -0.1309,-0.0763 -0.2835,-0.1145 -0.458,-0.1145 -0.1745,0 -0.3282,0.0382 -0.4613,0.1145 -0.133,0.0763 -0.2366,0.1832 -0.3108,0.3206 -0.0479,0.0888 -0.0803,0.188 -0.0973,0.2977l0.0976 0zm-4.9448 1.1973l0.9683 0c0.3053,0 0.5703,-0.0578 0.795,-0.1734 0.2246,-0.1156 0.3991,-0.2803 0.5234,-0.494 0.1243,-0.2137 0.1865,-0.4645 0.1865,-0.7524 0,-0.2922 -0.0622,-0.5441 -0.1865,-0.7557 -0.1243,-0.2115 -0.2988,-0.3751 -0.5234,-0.4907 -0.2246,-0.1156 -0.4896,-0.1734 -0.795,-0.1734l-0.9683 0 0 2.8396zm-1.0599 0.8702l0 -4.58 2.0806 0c0.4973,0 0.9356,0.0949 1.3151,0.2846 0.3795,0.1897 0.6761,0.4547 0.8898,0.795 0.2137,0.3402 0.3206,0.7437 0.3206,1.2104 0,0.4624 -0.1069,0.8648 -0.3206,1.2072 -0.2137,0.3424 -0.5103,0.6085 -0.8898,0.7982 -0.3795,0.1897 -0.8179,0.2846 -1.3151,0.2846l-2.0806 0z"/>
  <path class="fil1" d="M2.1886 10.8662c-0.0165,-0.1849 -0.1159,-0.497 -0.1613,-0.6883 -0.5449,-2.3002 -1.2592,-5.931 -0.2001,-8.0477 0.1628,-0.3253 0.5105,-0.7088 1.0288,-0.6659 0.3939,0.0326 0.8948,0.3849 1.132,0.5628 0.6442,0.4832 1.1379,1.0762 1.6334,1.7568 0.2368,0.3253 0.4522,0.6693 0.6807,1.0157 0.0781,0.1184 0.009,0.1914 -0.0538,0.3021 -0.4987,0.8793 -1.0888,2.2786 -1.4463,3.1964 -0.2038,0.5234 -0.7565,2.0732 -0.8154,2.5746l1.3016 -0.0046c0.0595,-0.1081 0.1521,-0.47 0.1955,-0.6108 0.1891,-0.6134 0.3985,-1.1823 0.6272,-1.779 0.1407,-0.3673 0.8333,-2.0272 0.9952,-2.2031 0.3083,0.3418 1.2133,2.82 1.4169,3.402 0.1387,0.3963 0.2624,0.7932 0.4128,1.19l1.298 0.0024c-0.0276,-0.2077 -0.1288,-0.4759 -0.1871,-0.6783 -0.4097,-1.4209 -1.0448,-2.9651 -1.675,-4.2684 -0.0946,-0.1956 -0.1927,-0.3782 -0.2884,-0.5716 -0.1485,-0.3002 -0.2715,-0.4004 -0.1853,-0.5386 0.3207,-0.5138 0.6755,-1.0364 1.0476,-1.5091 0.5189,-0.6592 1.5518,-1.7236 2.4201,-1.8296 1.3681,-0.167 1.53,2.5926 1.542,3.5273 0.0209,1.625 -0.2353,2.9852 -0.5726,4.5169 -0.0924,0.4195 -0.2056,0.9461 -0.3328,1.3539l1.313 -0.0046c0.0778,-0.3644 0.1962,-0.7415 0.2852,-1.1146 0.5689,-2.3853 1.0541,-6.2754 -0.1489,-8.3222 -0.9037,-1.5377 -2.337,-1.5124 -3.7137,-0.6518 -0.3272,0.2045 -0.8797,0.6694 -1.1351,0.9529 -0.5157,0.5724 -0.7585,0.8927 -1.2277,1.5238 -0.094,0.1264 -0.182,0.2689 -0.2856,0.3864 -0.212,-0.2557 -0.3815,-0.5445 -0.5922,-0.8084 -0.6496,-0.8136 -1.1015,-1.4538 -2.0536,-2.0733 -0.5473,-0.3561 -1.3293,-0.7134 -2.1563,-0.5276 -0.7387,0.1659 -1.259,0.6653 -1.5393,1.2115 -1.0543,2.0542 -0.8113,4.879 -0.3795,7.2008 0.1354,0.7282 0.3107,1.5506 0.5258,2.2232l1.2941 -0.0022z"/>
  <path class="fil0" d="M44.5867 10.8458c0.0304,0.0315 0.0667,0.0461 0.1128,0.0462 0.0461,0 0.0825,-0.0146 0.1129,-0.0461 0.0586,-0.0607 0.0587,-0.1638 0.0001,-0.2241 -0.0304,-0.0304 -0.0667,-0.0445 -0.1128,-0.0446 -0.0461,-0 -0.0825,0.0141 -0.1129,0.0444 -0.0586,0.0602 -0.0587,0.1633 -0.0001,0.2241z"/>
  <path id="_1" class="fil0" d="M45.7361 10.8991c0.1481,0.0001 0.2865,-0.0362 0.4119,-0.1077 0.1259,-0.071 0.2182,-0.1675 0.2801,-0.2896l-0.2018 -0.1238c-0.1005,0.1763 -0.2818,0.2869 -0.4901,0.2868 -0.1606,-0.0001 -0.2924,-0.0539 -0.3987,-0.1619 -0.1063,-0.1064 -0.1588,-0.2394 -0.1588,-0.3967 0.0001,-0.1573 0.0544,-0.2886 0.1625,-0.3965 0.108,-0.1079 0.2399,-0.1616 0.394,-0.1615 0.2149,0.0001 0.3895,0.1093 0.4974,0.2954l0.2025 -0.1241c-0.0672,-0.1281 -0.1621,-0.228 -0.2847,-0.2991 -0.122,-0.0717 -0.2604,-0.1065 -0.415,-0.1066 -0.2268,-0.0001 -0.4178,0.0757 -0.5736,0.2276 -0.1574,0.154 -0.2357,0.3412 -0.2358,0.5647 -0.0001,0.2235 0.0779,0.4108 0.2319,0.5633 0.154,0.1536 0.3482,0.2297 0.5783,0.2298z"/>
  <path id="_2" class="fil0" d="M47.8769 10.6724c0.1542,-0.1524 0.2324,-0.3412 0.2325,-0.5647 0.0001,-0.2235 -0.0779,-0.4124 -0.2319,-0.565 -0.1545,-0.152 -0.3487,-0.2281 -0.5793,-0.2282 -0.2306,-0.0001 -0.4249,0.0757 -0.5796,0.2276 -0.1542,0.1524 -0.2324,0.3412 -0.2325,0.5647 -0.0001,0.2235 0.0779,0.4124 0.2319,0.565 0.1546,0.152 0.3488,0.2281 0.5794,0.2282 0.2306,0.0001 0.4249,-0.0757 0.5796,-0.2276zm-0.9788 -0.9636c0.107,-0.1063 0.2394,-0.1599 0.4,-0.1598 0.1606,0.0001 0.293,0.0539 0.3993,0.1603 0.1068,0.108 0.1594,0.241 0.1593,0.3983 -0.0001,0.1573 -0.0528,0.2903 -0.1597,0.3965 -0.1064,0.1079 -0.2388,0.1616 -0.3994,0.1615 -0.1606,-0.0001 -0.293,-0.0539 -0.3998,-0.1619 -0.1063,-0.1064 -0.1588,-0.2394 -0.1588,-0.3967 0.0001,-0.1573 0.0528,-0.2903 0.1592,-0.3982z"/>
  <path id="_3" class="fil0" d="M48.2243 10.8478c0.0304,0.0315 0.0667,0.0462 0.1128,0.0462 0.0461,0 0.0825,-0.0146 0.1129,-0.0461 0.0586,-0.0607 0.0587,-0.1638 0.0001,-0.2241 -0.0304,-0.0304 -0.0667,-0.0445 -0.1128,-0.0446 -0.0461,-0 -0.0825,0.0141 -0.1129,0.0444 -0.0586,0.0602 -0.0587,0.1633 -0.0001,0.2241z"/>
  <path id="_4" class="fil0" d="M48.9776 10.0105c0.0001,-0.1351 0.0463,-0.2463 0.1369,-0.3304 0.0907,-0.0841 0.2019,-0.1269 0.3354,-0.1268 0.2783,0.0002 0.4307,0.156 0.4306,0.4527l-0.0005 0.866 0.2528 0.0001 0.0005 -0.9278c0.0001,-0.1953 -0.0568,-0.3495 -0.1701,-0.4624 -0.1144,-0.1108 -0.2717,-0.1662 -0.4736,-0.1663 -0.1161,-0.0001 -0.2176,0.0237 -0.3066,0.0725 -0.0906,0.0493 -0.1574,0.1122 -0.2036,0.1871l0.0001 -0.2306 -0.2545 -0.0001 -0.0008 1.5268 0.2528 0.0001 0.0005 -0.8611z"/>
  <polygon id="_5" class="fil0" points="51.4928,10.8729 51.4929,10.6548 50.6182,10.6543 51.4474,9.5593 51.4475,9.3461 50.3363,9.3455 50.3362,9.5636 51.1538,9.564 50.3242,10.6591 50.324,10.8723 "/>
 </g>
</svg>
