<?xml version="1.0" encoding="UTF-8"?>
<!DOCTYPE svg PUBLIC "-//W3C//DTD SVG 1.1//EN" "http://www.w3.org/Graphics/SVG/1.1/DTD/svg11.dtd">
<!-- Creator: CorelDRAW 2023 -->
<svg xmlns="http://www.w3.org/2000/svg" xml:space="preserve" width="73.2465mm" height="11.0492mm" version="1.1" style="shape-rendering:geometricPrecision; text-rendering:geometricPrecision; image-rendering:optimizeQuality; fill-rule:evenodd; clip-rule:evenodd"
viewBox="0 0 2.1308 0.3214"
 xmlns:xlink="http://www.w3.org/1999/xlink"
 xmlns:xodm="http://www.corel.com/coreldraw/odm/2003">
 <defs>
  <style type="text/css">
   <![CDATA[
    .fil0 {fill:#FEFEFE;fill-rule:nonzero}
   ]]>
  </style>
 </defs>
 <g id="Layer_x0020_1">
  <metadata id="CorelCorpID_0Corel-Layer"/>
  <g id="_2481120253488">
   <path class="fil0" d="M-0 0.2194l0.0186 0 0 -0.1765 0.0821 0.156 0.0153 0 0.082 -0.156 0 0.1765 0.0186 0 0 -0.2104 -0.0219 0 -0.0864 0.1666 -0.0865 -0.1666 -0.0219 0 0 0.2104zm0.4015 -0.0744c0,-0.0448 -0.0345,-0.0772 -0.079,-0.0772 -0.0444,0 -0.079,0.0325 -0.079,0.0772 0,0.0448 0.0345,0.0772 0.079,0.0772 0.0444,0 0.079,-0.0325 0.079,-0.0772zm-0.079 -0.0602c0.0347,0 0.0604,0.0256 0.0604,0.0602 0,0.0343 -0.026,0.0602 -0.0604,0.0602 -0.0343,0 -0.0604,-0.0259 -0.0604,-0.0602 0,-0.0344 0.0259,-0.0602 0.0604,-0.0602zm0.1207 0.1346l0 -0.0282c0.0059,0.0093 0.0143,0.0169 0.0251,0.0226 0.0108,0.0054 0.0231,0.0084 0.0366,0.0084 0.0214,0 0.0394,-0.0074 0.0538,-0.0223 0.0144,-0.0148 0.0216,-0.0331 0.0216,-0.0548 0,-0.0217 -0.0071,-0.0402 -0.0216,-0.0551 -0.0144,-0.0149 -0.0324,-0.0223 -0.0538,-0.0223 -0.0135,0 -0.0258,0.003 -0.0366,0.0088 -0.0108,0.0059 -0.0193,0.0134 -0.0251,0.0229l0 -0.098 -0.0186 0 0 0.218 0.0186 0zm0.0605 -0.1346c0.0166,0 0.0305,0.0057 0.0417,0.0174 0.011,0.0116 0.0166,0.026 0.0166,0.0432 0,0.017 -0.0056,0.0312 -0.0166,0.0429 -0.0112,0.0113 -0.0251,0.017 -0.0417,0.017 -0.0176,0 -0.0321,-0.0057 -0.0437,-0.0173 -0.0118,-0.0116 -0.0177,-0.0258 -0.0177,-0.0427 0,-0.0171 0.0059,-0.0315 0.0177,-0.0431 0.0116,-0.0116 0.0262,-0.0173 0.0437,-0.0173zm0.0999 0.1346l0.0186 0 0 -0.1489 -0.0186 0 0 0.1489zm0.001 -0.1906c0.0043,0.0043 0.0124,0.0043 0.0169,0 0.0043,-0.0043 0.0043,-0.0123 0,-0.0166 -0.0045,-0.0043 -0.0125,-0.0043 -0.0169,0 -0.0041,0.0043 -0.0041,0.0123 0.0002,0.0166l-0.0002 0zm0.0704 0.1906l0 -0.2182 -0.0186 0 0 0.2182 0.0186 0zm0.0233 -0.0745c0,0.0218 0.0075,0.04 0.0223,0.0549 0.0148,0.015 0.0335,0.0224 0.0561,0.0224 0.0259,0 0.0518,-0.0108 0.0664,-0.0328l-0.0138 -0.0101c-0.0124,0.0162 -0.0314,0.0258 -0.0523,0.0258 -0.0323,0 -0.0575,-0.0235 -0.0596,-0.0557l0.1288 0c0.0006,-0.0043 0.001,-0.0087 0.001,-0.0129 -0.0002,-0.0196 -0.0067,-0.0359 -0.0197,-0.0491 -0.0131,-0.0131 -0.0306,-0.0198 -0.0525,-0.0198 -0.0444,0 -0.0767,0.0334 -0.0767,0.0772zm0.0767 -0.0602c0.029,0 0.0523,0.0197 0.0539,0.049l-0.1104 0c0.0023,-0.0302 0.027,-0.049 0.0566,-0.049z"/>
   <path class="fil0" d="M2.0483 0.177c0.0076,0 0.0144,-0.0015 0.0204,-0.0046 0.006,-0.0031 0.0106,-0.0074 0.014,-0.013 0.0034,-0.0056 0.005,-0.012 0.005,-0.0193 0,-0.0075 -0.0017,-0.0139 -0.005,-0.0194 -0.0034,-0.0055 -0.008,-0.0098 -0.014,-0.0129 -0.006,-0.0031 -0.0128,-0.0046 -0.0204,-0.0046 -0.0076,0 -0.0144,0.0015 -0.0204,0.0046 -0.006,0.0031 -0.0107,0.0074 -0.0141,0.0129 -0.0034,0.0055 -0.0052,0.012 -0.0052,0.0194 0,0.0073 0.0017,0.0137 0.0052,0.0193 0.0034,0.0056 0.0082,0.0099 0.0141,0.013 0.006,0.0031 0.0128,0.0046 0.0204,0.0046zm-0.0087 0.0358c-0.014,0 -0.0266,-0.003 -0.0379,-0.0091 -0.0113,-0.0061 -0.0203,-0.0145 -0.0271,-0.0254 -0.0068,-0.0109 -0.0102,-0.0236 -0.0102,-0.0382 0,-0.0147 0.0034,-0.0275 0.0102,-0.0384 0.0068,-0.0109 0.0158,-0.0193 0.0271,-0.0253 0.0113,-0.006 0.0239,-0.0089 0.0379,-0.0089 0.0127,0 0.0239,0.0026 0.0335,0.0077 0.0063,0.0033 0.0117,0.0079 0.0162,0.0136l0 -0.019 0.0414 0 0 0.1252c0,0.028 -0.0073,0.0485 -0.0218,0.0618 -0.0145,0.0132 -0.0354,0.0198 -0.0626,0.0198 -0.0142,0 -0.0278,-0.0017 -0.041,-0.0052 -0.0131,-0.0035 -0.0241,-0.0086 -0.0328,-0.0155l0.0173 -0.0313c0.0063,0.0052 0.0144,0.0094 0.0242,0.0124 0.0098,0.0031 0.0194,0.0046 0.0289,0.0046 0.0155,0 0.0267,-0.0034 0.0337,-0.0103 0.007,-0.0069 0.0105,-0.0171 0.0105,-0.0308l0 -0.0066c-0.004,0.0045 -0.0087,0.0082 -0.014,0.011 -0.0097,0.0052 -0.0209,0.0078 -0.0335,0.0078zm-0.2507 0.0073l0 -0.1504 0.0417 0 0 0.0179 0 0c0.0043,-0.0048 0.0094,-0.0088 0.0154,-0.012 0.0101,-0.0054 0.0215,-0.0081 0.0344,-0.0081 0.0119,0 0.0226,0.0024 0.032,0.0071 0.0094,0.0048 0.0168,0.012 0.0222,0.0218 0.0054,0.0098 0.0081,0.0223 0.0081,0.0376l0 0.0861 -0.0436 0 0 -0.0794c0,-0.0121 -0.0027,-0.0211 -0.008,-0.0268 -0.0053,-0.0058 -0.0128,-0.0087 -0.0225,-0.0087 -0.0069,0 -0.0131,0.0014 -0.0186,0.0043 -0.0055,0.0029 -0.0098,0.0073 -0.0129,0.0133 -0.0031,0.006 -0.0046,0.0136 -0.0046,0.0229l0 0.0744 -0.0436 0zm-0.0547 -0.1714c-0.008,0 -0.0145,-0.0023 -0.0196,-0.007 -0.005,-0.0047 -0.0075,-0.0104 -0.0075,-0.0173 0,-0.0069 0.0025,-0.0127 0.0075,-0.0173 0.005,-0.0047 0.0116,-0.007 0.0196,-0.007 0.008,0 0.0145,0.0022 0.0196,0.0066 0.005,0.0044 0.0075,0.01 0.0075,0.0169 0,0.0073 -0.0025,0.0133 -0.0074,0.018 -0.0049,0.0048 -0.0115,0.0071 -0.0197,0.0071zm-0.0218 0.1714l0 -0.1504 0.0436 0 0 0.1504 -0.0436 0zm-0.0765 0l0 -0.2074 0.0436 0 0 0.2074 -0.0436 0zm-0.0547 -0.1714c-0.008,0 -0.0145,-0.0023 -0.0196,-0.007 -0.005,-0.0047 -0.0075,-0.0104 -0.0075,-0.0173 0,-0.0069 0.0025,-0.0127 0.0075,-0.0173 0.005,-0.0047 0.0116,-0.007 0.0196,-0.007 0.008,0 0.0145,0.0022 0.0196,0.0066 0.005,0.0044 0.0075,0.01 0.0075,0.0169 0,0.0073 -0.0025,0.0133 -0.0074,0.018 -0.0049,0.0048 -0.0115,0.0071 -0.0197,0.0071zm-0.0218 0.1714l0 -0.1504 0.0436 0 0 0.1504 -0.0436 0zm-0.0726 0l0 -0.0187c-0.0033,0.0055 -0.0078,0.01 -0.0134,0.0134 -0.0084,0.005 -0.0192,0.0075 -0.0324,0.0075 -0.0117,0 -0.0218,-0.002 -0.0302,-0.006 -0.0084,-0.004 -0.0148,-0.0095 -0.0193,-0.0164 -0.0045,-0.0069 -0.0067,-0.0146 -0.0067,-0.0232 0,-0.0089 0.0022,-0.0168 0.0066,-0.0235 0.0044,-0.0067 0.0113,-0.012 0.0208,-0.0158 0.0095,-0.0038 0.0219,-0.0057 0.0372,-0.0057l0.0347 0c0,-0.0093 -0.0028,-0.0166 -0.0085,-0.0218 -0.0057,-0.0052 -0.0144,-0.0078 -0.0261,-0.0078 -0.008,0 -0.0159,0.0013 -0.0236,0.0038 -0.0077,0.0025 -0.0143,0.0059 -0.0197,0.0102l-0.0157 -0.0305c0.0082,-0.0058 0.0181,-0.0103 0.0296,-0.0134 0.0116,-0.0032 0.0233,-0.0048 0.0352,-0.0048 0.0229,0 0.0407,0.0054 0.0534,0.0162 0.0127,0.0108 0.019,0.0277 0.019,0.0506l0 0.0858 -0.0408 0zm-0.0028 -0.0475l0 -0.0154 -0.0299 0c-0.0103,0 -0.0173,0.0017 -0.0211,0.005 -0.0038,0.0034 -0.0057,0.0075 -0.0057,0.0126 0,0.0056 0.0022,0.01 0.0066,0.0133 0.0044,0.0033 0.0104,0.0049 0.018,0.0049 0.0073,0 0.0138,-0.0017 0.0196,-0.0052 0.0058,-0.0034 0.01,-0.0085 0.0126,-0.0152zm-0.1369 0.0498c-0.0177,0 -0.0315,-0.0045 -0.0414,-0.0136 -0.0099,-0.009 -0.0148,-0.0225 -0.0148,-0.0404l0 -0.0651 -0.0232 0 0 -0.0335 0.0232 0 0 -0.0333 0.0436 0 0 0.0333 0.0375 0 0 0.0335 -0.0375 0 0 0.0646c0,0.0063 0.0017,0.0112 0.005,0.0147 0.0034,0.0034 0.0079,0.0052 0.0137,0.0052 0.0069,0 0.0128,-0.0019 0.0176,-0.0056l0.0117 0.0308c-0.0045,0.0032 -0.0098,0.0055 -0.0161,0.0071 -0.0062,0.0016 -0.0127,0.0024 -0.0194,0.0024zm-0.1556 0c-0.0171,0 -0.0322,-0.0034 -0.0451,-0.0101 -0.013,-0.0067 -0.023,-0.0159 -0.0301,-0.0275 -0.0071,-0.0116 -0.0106,-0.0249 -0.0106,-0.0398 0,-0.0151 0.0035,-0.0285 0.0105,-0.0401 0.007,-0.0116 0.0165,-0.0208 0.0287,-0.0274 0.0121,-0.0066 0.0258,-0.0099 0.0411,-0.0099 0.0147,0 0.028,0.0031 0.0398,0.0094 0.0118,0.0062 0.0212,0.0152 0.0281,0.0268 0.0069,0.0116 0.0103,0.0256 0.0103,0.0418 0,0.0017 -0.0001,0.0036 -0.0003,0.0057 -0.0002,0.0021 -0.0004,0.0041 -0.0006,0.006l-0.0905 0 -0.0196 0 -0.0036 0c0.0009,0.004 0.0023,0.0077 0.0043,0.011 0.0036,0.0062 0.0088,0.011 0.0154,0.0143 0.0066,0.0033 0.0144,0.0049 0.0233,0.0049 0.008,0 0.015,-0.0012 0.0211,-0.0036 0.0061,-0.0024 0.0116,-0.0061 0.0166,-0.0109l0.0232 0.0252c-0.0069,0.0078 -0.0156,0.0138 -0.026,0.018 -0.0104,0.0042 -0.0225,0.0063 -0.0361,0.0063zm-0.0383 -0.0906l0.0196 0 0.0503 0c-0.0007,-0.0047 -0.0021,-0.009 -0.0042,-0.0129 -0.0032,-0.0058 -0.0075,-0.0103 -0.0131,-0.0136 -0.0056,-0.0033 -0.0121,-0.0049 -0.0196,-0.0049 -0.0075,0 -0.014,0.0016 -0.0197,0.0049 -0.0057,0.0033 -0.0101,0.0078 -0.0133,0.0137 -0.002,0.0038 -0.0034,0.008 -0.0042,0.0127l0.0042 0zm-0.2113 0.0512l0.0414 0c0.013,0 0.0244,-0.0025 0.034,-0.0074 0.0096,-0.0049 0.0171,-0.012 0.0224,-0.0211 0.0053,-0.0091 0.008,-0.0198 0.008,-0.0322 0,-0.0125 -0.0027,-0.0232 -0.008,-0.0323 -0.0053,-0.009 -0.0128,-0.016 -0.0224,-0.021 -0.0096,-0.0049 -0.0209,-0.0074 -0.034,-0.0074l-0.0414 0 0 0.1213zm-0.0453 0.0372l0 -0.1957 0.0889 0c0.0212,0 0.04,0.0041 0.0562,0.0122 0.0162,0.0081 0.0289,0.0194 0.038,0.034 0.0091,0.0145 0.0137,0.0318 0.0137,0.0517 0,0.0198 -0.0046,0.0369 -0.0137,0.0516 -0.0091,0.0146 -0.0218,0.026 -0.038,0.0341 -0.0162,0.0081 -0.0349,0.0122 -0.0562,0.0122l-0.0889 0z"/>
   <path class="fil0" d="M1.6457 0.3191c0.0013,0.0013 0.0029,0.002 0.0048,0.002 0.002,0 0.0035,-0.0006 0.0048,-0.002 0.0025,-0.0026 0.0025,-0.007 0,-0.0096 -0.0013,-0.0013 -0.0028,-0.0019 -0.0048,-0.0019 -0.002,0 -0.0035,0.0006 -0.0048,0.0019 -0.0025,0.0026 -0.0025,0.007 -0,0.0096z"/>
   <path id="_1" class="fil0" d="M1.6948 0.3214c0.0063,0 0.0122,-0.0015 0.0176,-0.0046 0.0054,-0.003 0.0093,-0.0072 0.012,-0.0124l-0.0086 -0.0053c-0.0043,0.0075 -0.012,0.0123 -0.0209,0.0123 -0.0069,-0 -0.0125,-0.0023 -0.017,-0.0069 -0.0045,-0.0045 -0.0068,-0.0102 -0.0068,-0.0169 0,-0.0067 0.0023,-0.0123 0.0069,-0.0169 0.0046,-0.0046 0.0103,-0.0069 0.0168,-0.0069 0.0092,0 0.0166,0.0047 0.0213,0.0126l0.0087 -0.0053c-0.0029,-0.0055 -0.0069,-0.0097 -0.0122,-0.0128 -0.0052,-0.0031 -0.0111,-0.0045 -0.0177,-0.0046 -0.0097,-0 -0.0179,0.0032 -0.0245,0.0097 -0.0067,0.0066 -0.0101,0.0146 -0.0101,0.0241 -0,0.0096 0.0033,0.0176 0.0099,0.0241 0.0066,0.0066 0.0149,0.0098 0.0247,0.0098z"/>
   <path id="_2" class="fil0" d="M1.7863 0.3117c0.0066,-0.0065 0.0099,-0.0146 0.0099,-0.0241 0,-0.0096 -0.0033,-0.0176 -0.0099,-0.0241 -0.0066,-0.0065 -0.0149,-0.0097 -0.0248,-0.0098 -0.0099,-0 -0.0182,0.0032 -0.0248,0.0097 -0.0066,0.0065 -0.0099,0.0146 -0.0099,0.0241 -0,0.0096 0.0033,0.0176 0.0099,0.0241 0.0066,0.0065 0.0149,0.0097 0.0248,0.0097 0.0099,0 0.0182,-0.0032 0.0248,-0.0097zm-0.0418 -0.0412c0.0046,-0.0045 0.0102,-0.0068 0.0171,-0.0068 0.0069,0 0.0125,0.0023 0.0171,0.0069 0.0046,0.0046 0.0068,0.0103 0.0068,0.017 -0,0.0067 -0.0023,0.0124 -0.0068,0.0169 -0.0045,0.0046 -0.0102,0.0069 -0.0171,0.0069 -0.0069,-0 -0.0125,-0.0023 -0.0171,-0.0069 -0.0045,-0.0045 -0.0068,-0.0102 -0.0068,-0.0169 0,-0.0067 0.0023,-0.0124 0.0068,-0.017z"/>
   <path id="_3" class="fil0" d="M1.8011 0.3192c0.0013,0.0013 0.0029,0.002 0.0048,0.002 0.002,0 0.0035,-0.0006 0.0048,-0.002 0.0025,-0.0026 0.0025,-0.007 0,-0.0096 -0.0013,-0.0013 -0.0028,-0.0019 -0.0048,-0.0019 -0.002,-0 -0.0035,0.0006 -0.0048,0.0019 -0.0025,0.0026 -0.0025,0.007 -0,0.0096z"/>
   <path id="_4" class="fil0" d="M1.8333 0.2834c0,-0.0058 0.002,-0.0105 0.0059,-0.0141 0.0039,-0.0036 0.0086,-0.0054 0.0143,-0.0054 0.0119,0 0.0184,0.0067 0.0184,0.0193l-0 0.037 0.0108 0 0 -0.0396c0,-0.0083 -0.0024,-0.0149 -0.0073,-0.0198 -0.0049,-0.0047 -0.0116,-0.0071 -0.0202,-0.0071 -0.005,-0 -0.0093,0.001 -0.0131,0.0031 -0.0039,0.0021 -0.0067,0.0048 -0.0087,0.008l0 -0.0099 -0.0109 -0 -0 0.0652 0.0108 0 0 -0.0368z"/>
   <polygon id="_5" class="fil0" points="1.9408,0.3203 1.9408,0.3109 1.9034,0.3109 1.9388,0.2641 1.9388,0.255 1.8914,0.255 1.8914,0.2643 1.9263,0.2643 1.8908,0.3111 1.8908,0.3202 "/>
  </g>
 </g>
</svg>
