<?xml version="1.0" encoding="UTF-8"?>
<!DOCTYPE svg PUBLIC "-//W3C//DTD SVG 1.1//EN" "http://www.w3.org/Graphics/SVG/1.1/DTD/svg11.dtd">
<!-- Creator: CorelDRAW 2023 -->
<svg xmlns="http://www.w3.org/2000/svg" xml:space="preserve" width="219.806mm" height="78.8261mm" version="1.1" style="shape-rendering:geometricPrecision; text-rendering:geometricPrecision; image-rendering:optimizeQuality; fill-rule:evenodd; clip-rule:evenodd"
viewBox="0 0 15.9822 5.7315"
 xmlns:xlink="http://www.w3.org/1999/xlink"
 xmlns:xodm="http://www.corel.com/coreldraw/odm/2003">
 <defs>
  <style type="text/css">
   <![CDATA[
    .fil0 {fill:#888880;fill-rule:nonzero}
   ]]>
  </style>
 </defs>
 <g id="Layer_x0020_1">
  <metadata id="CorelCorpID_0Corel-Layer"/>
  <g id="_1261017879328">
   <path class="fil0" d="M-0 2.391l0.9693 -2.2583 0.676 0 0.0461 0.8749c0.0026,0.0532 0.0042,0.1095 0.005,0.1684 0.0007,0.0595 0.0008,0.1205 -0.0001,0.1842 0.0171,-0.0447 0.0384,-0.0937 0.0637,-0.1453 0.0254,-0.0521 0.0604,-0.1174 0.1053,-0.1953l0.5141 -0.887 0.6706 0 -0.2191 2.2583 -0.5604 0 0.1241 -1.0765c0.0074,-0.0611 0.0157,-0.1205 0.025,-0.18 0.0093,-0.059 0.0197,-0.1184 0.0306,-0.1779 -0.032,0.0758 -0.0822,0.1711 -0.1507,0.2853 -0.0133,0.0226 -0.0233,0.0395 -0.0295,0.0511l-0.6521 1.0981 -0.3679 0 -0.0796 -1.097c-0.005,-0.0553 -0.0083,-0.1111 -0.01,-0.1669 -0.0022,-0.0563 -0.0033,-0.1127 -0.0039,-0.169 -0.0192,0.0669 -0.0391,0.13 -0.059,0.1895 -0.0205,0.0595 -0.0405,0.1153 -0.06,0.1669l-0.4459 1.0765 -0.5917 0z"/>
   <path id="_1" class="fil0" d="M5.8695 1.5534c0.0121,-0.0995 -0.009,-0.1795 -0.0631,-0.24 -0.0542,-0.0605 -0.131,-0.0911 -0.2307,-0.0911 -0.1108,0 -0.2076,0.0421 -0.2909,0.1258 -0.0828,0.0837 -0.1321,0.189 -0.1476,0.3164 -0.0117,0.0969 0.0095,0.1753 0.0632,0.2353 0.0537,0.06 0.1296,0.09 0.2282,0.09 0.1129,0 0.2107,-0.0411 0.2938,-0.1232 0.0826,-0.0821 0.1319,-0.1869 0.1472,-0.3132zm-0.4708 -0.7391c-0.0081,0.0321 -0.0198,0.0669 -0.0344,0.1042 -0.0152,0.0379 -0.0342,0.0811 -0.0577,0.1306 0.0997,-0.0874 0.1988,-0.1527 0.2967,-0.1953 0.0985,-0.0426 0.1971,-0.0642 0.2957,-0.0642 0.1813,0 0.3216,0.0674 0.4214,0.2021 0.0998,0.1348 0.1365,0.3085 0.1107,0.5211 -0.0327,0.2695 -0.1377,0.4932 -0.3152,0.6712 -0.1774,0.1779 -0.3838,0.2669 -0.6187,0.2669 -0.1039,0 -0.1956,-0.0221 -0.2761,-0.0663 -0.0811,-0.0442 -0.1559,-0.1137 -0.225,-0.2079l-0.062 0.2142 -0.5148 0 0.6715 -2.391 0.5371 0 -0.2291 0.8143z"/>
   <path id="_2" class="fil0" d="M6.7929 0.369c0.0098,-0.0805 0.0468,-0.1495 0.1115,-0.2069 0.0642,-0.0574 0.1372,-0.0863 0.2193,-0.0863 0.0859,0 0.1535,0.0279 0.2041,0.0832 0.05,0.0558 0.0702,0.1253 0.0599,0.21 -0.0101,0.0832 -0.0478,0.1537 -0.1125,0.2111 -0.0647,0.0574 -0.1393,0.0863 -0.2231,0.0863 -0.0822,0 -0.1481,-0.029 -0.1983,-0.0874 -0.0508,-0.0579 -0.0709,-0.1279 -0.061,-0.21zm-0.5345 2.0219l0.4363 -1.5571 0.5572 0 -0.4368 1.5571 -0.5567 0z"/>
   <polygon id="_3" class="fil0" points="7.626,0 8.1837,0 7.5085,2.391 6.9523,2.391 "/>
   <path id="_4" class="fil0" d="M8.9686 1.4276c0.0049,-0.0842 -0.0151,-0.1511 -0.061,-0.2006 -0.046,-0.0495 -0.1113,-0.0742 -0.1962,-0.0742 -0.0769,0 -0.1482,0.0242 -0.2145,0.0726 -0.0668,0.0484 -0.1206,0.1158 -0.1623,0.2021l0.6341 0zm-0.7095 0.3158l-0.0043 0.0353c-0.012,0.099 0.0043,0.1742 0.049,0.2253 0.0441,0.0516 0.1152,0.0774 0.2128,0.0774 0.0684,0 0.1343,-0.0142 0.1987,-0.0426 0.0639,-0.0284 0.1346,-0.0742 0.2112,-0.1374l0.2632 0.3001c-0.0993,0.0842 -0.2098,0.1474 -0.3315,0.1895 -0.1217,0.0421 -0.2547,0.0632 -0.3984,0.0632 -0.2561,0 -0.4467,-0.0674 -0.5719,-0.2027 -0.1252,-0.1353 -0.1727,-0.3248 -0.1432,-0.5685 0.0323,-0.2664 0.1429,-0.4832 0.3311,-0.6496 0.1883,-0.1669 0.4163,-0.25 0.6835,-0.25 0.2423,0 0.4279,0.0737 0.558,0.2206 0.1295,0.1474 0.1796,0.3422 0.1501,0.5854 -0.0026,0.0216 -0.0105,0.0605 -0.0232,0.1174 -0.0042,0.0174 -0.0073,0.0295 -0.0092,0.0368l-1.1759 0z"/>
   <path id="_5" class="fil0" d="M3.8689 1.2286c-0.1076,0 -0.2048,0.0447 -0.2904,0.1348 -0.0862,0.09 -0.1372,0.2 -0.1529,0.3295 -0.0115,0.0953 0.0068,0.1716 0.0545,0.2279 0.0483,0.0563 0.118,0.0848 0.2092,0.0848 0.115,0 0.2146,-0.0432 0.2994,-0.13 0.0847,-0.0869 0.1354,-0.1985 0.1518,-0.3343 0.0117,-0.0963 -0.0066,-0.1727 -0.0555,-0.2285 -0.0488,-0.0563 -0.1207,-0.0842 -0.2162,-0.0842zm-0.9736 0.4569c0.032,-0.2643 0.1453,-0.4811 0.3397,-0.6506 0.195,-0.17 0.428,-0.2548 0.6994,-0.2548 0.2508,0 0.4426,0.0705 0.5756,0.2116 0.133,0.1405 0.1854,0.329 0.1569,0.5643 -0.0317,0.2616 -0.1457,0.4764 -0.3422,0.6448 -0.1965,0.169 -0.4336,0.2532 -0.7114,0.2532 -0.2455,0 -0.4337,-0.07 -0.5641,-0.21 -0.131,-0.1395 -0.1821,-0.3259 -0.1539,-0.5585z"/>
   <path class="fil0" d="M3.6829 5.0429l0.6295 -2.2583 0.3912 0c0.2921,0 0.4995,0.0079 0.6222,0.0237 0.1231,0.0163 0.2211,0.0437 0.2938,0.0826 0.1589,0.0842 0.2722,0.2079 0.341,0.3711 0.0688,0.1632 0.0899,0.3564 0.0627,0.5806 -0.0263,0.2169 -0.0891,0.4069 -0.1877,0.5691 -0.0992,0.1627 -0.2363,0.3006 -0.4112,0.4138 -0.1234,0.0779 -0.2654,0.1337 -0.4259,0.1674 -0.1604,0.0332 -0.4238,0.05 -0.7907,0.05l-0.0854 0 -0.4395 0zm0.7506 -0.5022c0.042,0.0032 0.0731,0.0053 0.0931,0.0058 0.0201,0.0005 0.0392,0.0005 0.0567,0.0005 0.2433,0 0.4352,-0.0605 0.5766,-0.1821 0.1409,-0.1211 0.2255,-0.299 0.254,-0.5338 0.0232,-0.1911 -0.0061,-0.3301 -0.0878,-0.4169 -0.0817,-0.0869 -0.2254,-0.1306 -0.4311,-0.1306l-0.115 0 -0.3464 1.2571z"/>
   <polygon id="_1_0" class="fil0" points="7.4845,5.0429 7.8101,3.8838 7.5492,3.8838 7.6611,3.4858 7.9219,3.4858 8.0467,3.0342 8.5991,3.0342 8.4712,3.4858 8.7522,3.4858 8.6403,3.8838 8.3593,3.8838 8.0359,5.0429 "/>
   <path id="_2_1" class="fil0" d="M8.9448 4.3196c-0.0121,0.1 0.0089,0.18 0.0626,0.2406 0.0542,0.0605 0.131,0.0911 0.2318,0.0911 0.1097,0 0.2066,-0.0426 0.2901,-0.1274 0.0834,-0.0848 0.1328,-0.1906 0.1483,-0.3179 0.0117,-0.0969 -0.0095,-0.1753 -0.0632,-0.2353 -0.0542,-0.06 -0.1301,-0.09 -0.2287,-0.09 -0.1119,0 -0.2097,0.0416 -0.2929,0.1248 -0.0832,0.0832 -0.1325,0.1879 -0.1478,0.3143zm0.5494 0.5148c-0.0864,0.0874 -0.1787,0.1537 -0.2769,0.1985 -0.0977,0.0447 -0.2,0.0669 -0.3071,0.0669 -0.1802,0 -0.3195,-0.0674 -0.4187,-0.2021 -0.0992,-0.1348 -0.1358,-0.3095 -0.1098,-0.5243 0.0327,-0.2695 0.1383,-0.4933 0.3162,-0.6712 0.178,-0.1779 0.3838,-0.2669 0.6176,-0.2669 0.1087,0 0.2035,0.0226 0.2839,0.0674 0.0805,0.0447 0.15,0.1142 0.208,0.2085l0.0628 -0.2253 0.5243 0 -0.4368 1.5571 -0.5153 0 0.0518 -0.2085z"/>
   <path id="_3_2" class="fil0" d="M10.6295 3.021c0.0098,-0.0805 0.0468,-0.1495 0.1115,-0.2069 0.0642,-0.0574 0.1372,-0.0863 0.2193,-0.0863 0.0859,0 0.1535,0.0279 0.2041,0.0832 0.05,0.0558 0.0702,0.1253 0.0599,0.21 -0.0101,0.0832 -0.0478,0.1537 -0.1125,0.2111 -0.0647,0.0574 -0.1393,0.0863 -0.2231,0.0863 -0.0822,0 -0.1481,-0.029 -0.1983,-0.0874 -0.0508,-0.0579 -0.0709,-0.1279 -0.061,-0.21zm-0.5345 2.0219l0.4363 -1.5571 0.5572 0 -0.4368 1.5571 -0.5567 0z"/>
   <polygon id="_4_3" class="fil0" points="11.4307,2.652 11.9884,2.652 11.3132,5.0429 10.7571,5.0429 "/>
   <path id="_5_4" class="fil0" d="M14.5387 4.3202c-0.0121,0.0995 0.0079,0.18 0.0603,0.2416 0.0519,0.0616 0.1261,0.0926 0.2226,0.0926 0.1129,0 0.2119,-0.0426 0.297,-0.1279 0.0856,-0.0853 0.1362,-0.1921 0.1518,-0.3206 0.0119,-0.0979 -0.0088,-0.1763 -0.0621,-0.2358 -0.0538,-0.0595 -0.1302,-0.0895 -0.2293,-0.0895 -0.1119,0 -0.2097,0.0416 -0.2924,0.1248 -0.0832,0.0832 -0.1325,0.1879 -0.1479,0.3148zm1.111 0.3559c-0.0067,0.0247 -0.0161,0.0584 -0.0278,0.1021 -0.0885,0.328 -0.1814,0.5427 -0.2786,0.6448 -0.0969,0.0995 -0.2153,0.1758 -0.3549,0.229 -0.1395,0.0532 -0.2922,0.0795 -0.4592,0.0795 -0.2412,0 -0.4251,-0.0484 -0.5517,-0.1458 -0.126,-0.0974 -0.1914,-0.2406 -0.1956,-0.429l0.5789 0c-0.0002,0.0626 0.0189,0.1111 0.0583,0.1448 0.0393,0.0342 0.0967,0.0511 0.1725,0.0511 0.1156,0 0.2108,-0.0337 0.2847,-0.1005 0.0744,-0.0674 0.1292,-0.169 0.1643,-0.3058l0.0364 -0.1342c-0.0803,0.0853 -0.1676,0.1495 -0.2613,0.1921 -0.0937,0.0426 -0.1939,0.0642 -0.3004,0.0642 -0.184,0 -0.3266,-0.0658 -0.4262,-0.1974 -0.1002,-0.1316 -0.1371,-0.3037 -0.1114,-0.5159 0.032,-0.2643 0.1366,-0.4838 0.3141,-0.658 0.1775,-0.1742 0.3832,-0.2616 0.617,-0.2616 0.1066,0 0.2004,0.0221 0.281,0.0658 0.0806,0.0437 0.1508,0.1116 0.2112,0.2037l0.0621 -0.219 0.519 0 -0.3325 1.1902z"/>
   <path id="_6" class="fil0" d="M7.1173 4.0796c0.0049,-0.0842 -0.0151,-0.1511 -0.061,-0.2006 -0.046,-0.0495 -0.1113,-0.0742 -0.1962,-0.0742 -0.0769,0 -0.1482,0.0242 -0.2145,0.0726 -0.0668,0.0484 -0.1206,0.1158 -0.1623,0.2021l0.6341 0zm-0.7095 0.3158l-0.0043 0.0353c-0.012,0.099 0.0043,0.1742 0.049,0.2253 0.0441,0.0516 0.1152,0.0774 0.2128,0.0774 0.0684,0 0.1343,-0.0142 0.1987,-0.0426 0.0639,-0.0284 0.1346,-0.0742 0.2112,-0.1374l0.2632 0.3001c-0.0993,0.0842 -0.2098,0.1474 -0.3315,0.1895 -0.1217,0.0421 -0.2547,0.0632 -0.3984,0.0632 -0.2561,0 -0.4467,-0.0674 -0.5719,-0.2027 -0.1251,-0.1353 -0.1727,-0.3248 -0.1431,-0.5685 0.0323,-0.2664 0.1429,-0.4832 0.3311,-0.6496 0.1883,-0.1669 0.4163,-0.25 0.6835,-0.25 0.2423,0 0.4279,0.0737 0.558,0.2206 0.1295,0.1474 0.1796,0.3422 0.1501,0.5854 -0.0026,0.0216 -0.0105,0.0605 -0.0232,0.1174 -0.0042,0.0174 -0.0073,0.0295 -0.0092,0.0368l-1.1759 0z"/>
   <path id="_7" class="fil0" d="M11.9601 3.021c0.0098,-0.0805 0.0468,-0.1495 0.1115,-0.2069 0.0642,-0.0574 0.1372,-0.0863 0.2193,-0.0863 0.0859,0 0.1535,0.0279 0.2041,0.0832 0.05,0.0558 0.0702,0.1253 0.0599,0.21 -0.0101,0.0832 -0.0478,0.1537 -0.1125,0.2111 -0.0647,0.0574 -0.1393,0.0863 -0.2231,0.0863 -0.0822,0 -0.1481,-0.029 -0.1983,-0.0874 -0.0508,-0.0579 -0.0709,-0.1279 -0.061,-0.21zm-0.5345 2.0219l0.4363 -1.5571 0.5572 0 -0.4368 1.5571 -0.5567 0z"/>
   <path id="_8" class="fil0" d="M12.0972 5.0429l0.4368 -1.5571 0.5307 0 -0.0682 0.2432c0.0989,-0.1032 0.1933,-0.1779 0.2838,-0.2242 0.0904,-0.0463 0.186,-0.0695 0.2867,-0.0695 0.1628,0 0.2831,0.0437 0.3622,0.1306 0.0791,0.0869 0.1094,0.2085 0.0904,0.3653 -0.0064,0.0532 -0.0268,0.1427 -0.0605,0.2669 -0.0025,0.0116 -0.0046,0.0205 -0.0066,0.0279l-0.2294 0.817 -0.5551 0 0.2304 -0.8249c0.0065,-0.0232 0.013,-0.0463 0.0184,-0.069 0.0054,-0.0226 0.0088,-0.0421 0.0109,-0.059 0.0082,-0.0674 -0.0036,-0.119 -0.0354,-0.1537 -0.0323,-0.0353 -0.0832,-0.0526 -0.1537,-0.0526 -0.096,0 -0.1754,0.0342 -0.2384,0.1032 -0.0624,0.069 -0.115,0.179 -0.1572,0.3301l-0.1999 0.7259 -0.5461 0z"/>
  </g>
 </g>
</svg>
