<?xml version="1.0" encoding="UTF-8"?>
<!DOCTYPE svg PUBLIC "-//W3C//DTD SVG 1.1//EN" "http://www.w3.org/Graphics/SVG/1.1/DTD/svg11.dtd">
<!-- Creator: CorelDRAW 2023 -->
<svg xmlns="http://www.w3.org/2000/svg" xml:space="preserve" width="660.518mm" height="85.7276mm" version="1.1" style="shape-rendering:geometricPrecision; text-rendering:geometricPrecision; image-rendering:optimizeQuality; fill-rule:evenodd; clip-rule:evenodd"
viewBox="0 0 48.428 6.2854"
 xmlns:xlink="http://www.w3.org/1999/xlink"
 xmlns:xodm="http://www.corel.com/coreldraw/odm/2003">
 <defs>
  <style type="text/css">
   <![CDATA[
    .fil0 {fill:#FEFEFE;fill-rule:nonzero}
   ]]>
  </style>
 </defs>
 <g id="Layer_x0020_1">
  <metadata id="CorelCorpID_0Corel-Layer"/>
  <g id="_1310904223184">
   <polygon class="fil0" points="-0,4.9878 0.4233,4.9878 0.4233,0.9757 2.2887,4.5224 2.6374,4.5224 4.5027,0.9757 4.5027,4.9878 4.9261,4.9878 4.9261,0.2036 4.4282,0.2036 2.4642,3.9908 0.4979,0.2036 -0,0.2036 "/>
   <path id="_1" class="fil0" d="M9.1267 3.2957c0,-1.0175 -0.7853,-1.7559 -1.7956,-1.7559 -1.0102,0 -1.7956,0.7384 -1.7956,1.7559 0,1.0174 0.7853,1.7559 1.7956,1.7559 1.0102,0 1.7956,-0.7384 1.7956,-1.7559zm-1.7956 -1.3686c0.7877,0 1.3722,0.5821 1.3722,1.3686 0,0.7793 -0.5917,1.3686 -1.3722,1.3686 -0.7805,0 -1.3722,-0.5893 -1.3722,-1.3686 0,-0.7829 0.5881,-1.3686 1.3722,-1.3686z"/>
   <path id="_2" class="fil0" d="M10.0741 4.9878l0 -0.641c0.1335,0.2117 0.3247,0.3836 0.5713,0.5135 0.2465,0.1239 0.5256,0.1912 0.8322,0.1912 0.4871,0 0.896,-0.1684 1.2231,-0.5063 0.3283,-0.3367 0.4907,-0.7517 0.4907,-1.2459 0,-0.4943 -0.1624,-0.9128 -0.4907,-1.2532 -0.3271,-0.3379 -0.736,-0.5063 -1.2231,-0.5063 -0.3067,0 -0.5857,0.0674 -0.8322,0.2008 -0.2465,0.1335 -0.4378,0.3055 -0.5713,0.5195l0 -2.2285 -0.4233 0 0 4.9561 0.4233 0zm1.3758 -3.0608c0.3764,0 0.6939,0.1299 0.9477,0.3945 0.2501,0.2634 0.3776,0.5905 0.3776,0.9814 0,0.386 -0.1275,0.7096 -0.3776,0.9741 -0.2538,0.2574 -0.5713,0.3873 -0.9477,0.3873 -0.3993,0 -0.73,-0.1299 -0.9946,-0.3933 -0.2682,-0.2634 -0.4029,-0.5857 -0.4029,-0.9717 0,-0.3897 0.1347,-0.7156 0.4029,-0.979 0.2646,-0.2634 0.5953,-0.3933 0.9946,-0.3933z"/>
   <path id="_3" class="fil0" d="M13.7216 4.9878l0.4233 0 0 -3.3843 -0.4233 0 0 3.3843zm0.0216 -4.332c0.0986,0.0986 0.2814,0.0986 0.3837,0 0.0986,-0.0974 0.0986,-0.2802 0,-0.3776 -0.1022,-0.0986 -0.285,-0.0986 -0.3837,0 -0.0938,0.0974 -0.0938,0.2802 0.0048,0.3776l-0.0048 0z"/>
   <polygon id="_4" class="fil0" points="15.3437,4.9878 15.3437,0.0268 14.9203,0.0268 14.9203,4.9878 "/>
   <path id="_5" class="fil0" d="M15.8726 3.2945c0,0.4955 0.1696,0.9092 0.5063,1.2472 0.3355,0.3416 0.7625,0.5099 1.2748,0.5099 0.5893,0 1.1786,-0.2465 1.5105,-0.7456l-0.3139 -0.2285c-0.2826,0.3692 -0.7132,0.5869 -1.1894,0.5869 -0.7348,0 -1.3061,-0.534 -1.3554,-1.2652l2.9285 0c0.0144,-0.0986 0.0216,-0.1972 0.0216,-0.2922 -0.0036,-0.445 -0.1515,-0.8154 -0.4474,-1.1173 -0.2971,-0.2983 -0.6963,-0.4498 -1.193,-0.4498 -1.0102,0 -1.7426,0.7589 -1.7426,1.7547zm1.7426 -1.3674c0.6591,0 1.1894,0.4486 1.2243,1.1137l-2.5099 0c0.0529,-0.6867 0.6146,-1.1137 1.2856,-1.1137z"/>
   <path class="fil0" d="M20.371 5.0016l0 -4.4487 2.021 0c0.483,0 0.9088,0.0922 1.2774,0.2765 0.3686,0.1843 0.6567,0.4417 0.8643,0.7722 0.2076,0.3305 0.3114,0.7224 0.3114,1.1757 0,0.4491 -0.1038,0.84 -0.3114,1.1726 -0.2076,0.3326 -0.4957,0.591 -0.8643,0.7753 -0.3686,0.1843 -0.7944,0.2765 -1.2774,0.2765l-2.021 0zm1.0296 -0.8453l0.9406 0c0.2966,0 0.554,-0.0561 0.7722,-0.1684 0.2182,-0.1123 0.3877,-0.2722 0.5084,-0.4798 0.1208,-0.2076 0.1811,-0.4512 0.1811,-0.7309 0,-0.2839 -0.0604,-0.5286 -0.1811,-0.734 -0.1207,-0.2055 -0.2902,-0.3644 -0.5084,-0.4766 -0.2182,-0.1123 -0.4756,-0.1684 -0.7722,-0.1684l-0.9406 0 0 2.7582z"/>
   <path id="_1_0" class="fil0" d="M27.074 5.0525c-0.3898,0 -0.7319,-0.0763 -1.0264,-0.2288 -0.2945,-0.1525 -0.5222,-0.3612 -0.6832,-0.626 -0.161,-0.2648 -0.2415,-0.5667 -0.2415,-0.9056 0,-0.3432 0.0794,-0.6472 0.2383,-0.912 0.1589,-0.2648 0.376,-0.4724 0.6514,-0.6228 0.2754,-0.1504 0.5868,-0.2256 0.9342,-0.2256 0.3347,0 0.6366,0.071 0.9056,0.2129 0.269,0.1419 0.4819,0.3453 0.6387,0.6101 0.1568,0.2648 0.2351,0.5815 0.2351,0.9501 0,0.0381 -0.0021,0.0816 -0.0064,0.1303 -0.0042,0.0487 -0.0085,0.0943 -0.0127,0.1366l-2.7773 0 0 -0.5783 2.2561 0 -0.3813 0.1716c0,-0.178 -0.036,-0.3326 -0.108,-0.4639 -0.072,-0.1313 -0.1716,-0.2341 -0.2987,-0.3082 -0.1271,-0.0741 -0.2754,-0.1112 -0.4449,-0.1112 -0.1695,0 -0.3188,0.0371 -0.4481,0.1112 -0.1292,0.0741 -0.2298,0.178 -0.3019,0.3114 -0.072,0.1335 -0.108,0.2913 -0.108,0.4735l0 0.1525c0,0.1864 0.0413,0.3506 0.1239,0.4925 0.0826,0.1419 0.1991,0.25 0.3495,0.3241 0.1504,0.0741 0.3273,0.1112 0.5307,0.1112 0.1822,0 0.3421,-0.0275 0.4798,-0.0826 0.1377,-0.0551 0.2637,-0.1377 0.3781,-0.2479l0.5275 0.572c-0.1568,0.178 -0.3538,0.3146 -0.591,0.4099 -0.2373,0.0953 -0.5105,0.143 -0.8198,0.143z"/>
   <path id="_2_1" class="fil0" d="M30.6121 5.0525c-0.4025,0 -0.716,-0.1027 -0.9406,-0.3082 -0.2246,-0.2055 -0.3368,-0.5116 -0.3368,-0.9183l0 -2.9997 0.9914 0 0 2.987c0,0.1441 0.0381,0.2553 0.1144,0.3337 0.0763,0.0784 0.1801,0.1176 0.3114,0.1176 0.1568,0 0.2902,-0.0424 0.4004,-0.1271l0.2669 0.6991c-0.1017,0.072 -0.2235,0.126 -0.3654,0.1621 -0.1419,0.036 -0.2892,0.054 -0.4417,0.054zm-1.8049 -2.7074l0 -0.7626 2.3705 0 0 0.7626 -2.3705 0z"/>
   <path id="_3_2" class="fil0" d="M33.788 5.0016l0 -0.6673 -0.0636 -0.1462 0 -1.1948c0,-0.2118 -0.0646,-0.3771 -0.1938,-0.4957 -0.1292,-0.1186 -0.3273,-0.1779 -0.5942,-0.1779 -0.1822,0 -0.3612,0.0286 -0.537,0.0858 -0.1758,0.0572 -0.3252,0.1345 -0.448,0.232l-0.3559 -0.6927c0.1864,-0.1313 0.411,-0.233 0.6737,-0.3051 0.2627,-0.072 0.5296,-0.108 0.8008,-0.108 0.5211,0 0.9258,0.1229 1.2139,0.3686 0.2881,0.2457 0.4322,0.6292 0.4322,1.1503l0 1.9511 -0.9279 0zm-1.0423 0.0508c-0.2669,0 -0.4957,-0.0455 -0.6864,-0.1366 -0.1907,-0.0911 -0.3368,-0.215 -0.4385,-0.3718 -0.1017,-0.1568 -0.1525,-0.3326 -0.1525,-0.5275 0,-0.2034 0.0498,-0.3813 0.1493,-0.5338 0.0996,-0.1525 0.2574,-0.2722 0.4735,-0.3591 0.2161,-0.0869 0.4978,-0.1303 0.8453,-0.1303l0.9088 0 0 0.5783 -0.8008 0c-0.233,0 -0.393,0.0381 -0.4798,0.1144 -0.0869,0.0763 -0.1303,0.1716 -0.1303,0.286 0,0.1271 0.0498,0.2277 0.1493,0.3019 0.0996,0.0741 0.2362,0.1112 0.4099,0.1112 0.1652,0 0.3135,-0.0392 0.4449,-0.1176 0.1313,-0.0784 0.2267,-0.1938 0.286,-0.3464l0.1525 0.4576c-0.072,0.2203 -0.2034,0.3877 -0.394,0.5021 -0.1907,0.1144 -0.4364,0.1716 -0.7372,0.1716z"/>
   <path id="_4_3" class="fil0" d="M35.4386 5.0016l0 -3.4191 0.9914 0 0 3.4191 -0.9914 0zm0.4957 -3.8958c-0.1822,0 -0.3305,-0.053 -0.4449,-0.1589 -0.1144,-0.1059 -0.1716,-0.2373 -0.1716,-0.394 0,-0.1568 0.0572,-0.2881 0.1716,-0.394 0.1144,-0.1059 0.2627,-0.1589 0.4449,-0.1589 0.1822,0 0.3305,0.0498 0.4449,0.1493 0.1144,0.0996 0.1716,0.2277 0.1716,0.3845 0,0.1652 -0.0561,0.3019 -0.1684,0.4099 -0.1123,0.108 -0.2616,0.1621 -0.448,0.1621z"/>
   <polygon id="_5_4" class="fil0" points="37.1781,5.0016 37.1781,0.286 38.1695,0.286 38.1695,5.0016 "/>
   <path id="_6" class="fil0" d="M38.9177 5.0016l0 -3.4191 0.9914 0 0 3.4191 -0.9914 0zm0.4957 -3.8958c-0.1822,0 -0.3305,-0.053 -0.4449,-0.1589 -0.1144,-0.1059 -0.1716,-0.2373 -0.1716,-0.394 0,-0.1568 0.0572,-0.2881 0.1716,-0.394 0.1144,-0.1059 0.2627,-0.1589 0.4449,-0.1589 0.1822,0 0.3305,0.0498 0.4449,0.1493 0.1144,0.0996 0.1716,0.2277 0.1716,0.3845 0,0.1652 -0.0561,0.3019 -0.1684,0.4099 -0.1123,0.108 -0.2616,0.1621 -0.448,0.1621z"/>
   <path id="_7" class="fil0" d="M40.6572 5.0016l0 -3.4191 0.9469 0 0 0.9469 -0.1779 -0.286c0.1229,-0.2288 0.2987,-0.4046 0.5275,-0.5275 0.2288,-0.1229 0.4894,-0.1843 0.7817,-0.1843 0.2712,0 0.5137,0.054 0.7277,0.1621 0.214,0.108 0.3824,0.2733 0.5053,0.4957 0.1229,0.2224 0.1843,0.5074 0.1843,0.8548l0 1.9574 -0.9914 0 0 -1.8049c0,-0.2754 -0.0604,-0.4788 -0.1811,-0.6101 -0.1208,-0.1313 -0.2913,-0.197 -0.5116,-0.197 -0.1568,0 -0.2976,0.0328 -0.4226,0.0985 -0.125,0.0657 -0.2224,0.1663 -0.2923,0.3019 -0.0699,0.1356 -0.1049,0.3093 -0.1049,0.5211l0 1.6905 -0.9914 0z"/>
   <path id="_8" class="fil0" d="M46.5087 6.2854c-0.322,0 -0.6324,-0.0392 -0.9311,-0.1176 -0.2987,-0.0784 -0.5476,-0.196 -0.7468,-0.3527l0.394 -0.7118c0.144,0.1186 0.3273,0.2129 0.5497,0.2828 0.2224,0.0699 0.4417,0.1049 0.6578,0.1049 0.3517,0 0.6069,-0.0784 0.7658,-0.2351 0.1589,-0.1568 0.2383,-0.3898 0.2383,-0.6991l0 -0.5148 0.0636 -0.858 -0.0127 -0.8643 0 -0.7372 0.9406 0 0 2.8472c0,0.6355 -0.1652,1.1037 -0.4957,1.4045 -0.3305,0.3008 -0.805,0.4512 -1.4236,0.4512zm-0.1525 -1.449c-0.3178,0 -0.6048,-0.0689 -0.8611,-0.2065 -0.2563,-0.1377 -0.4618,-0.3305 -0.6165,-0.5783 -0.1547,-0.2479 -0.232,-0.537 -0.232,-0.8675 0,-0.3347 0.0773,-0.626 0.232,-0.8739 0.1546,-0.2479 0.3601,-0.4396 0.6165,-0.5752 0.2563,-0.1356 0.5434,-0.2034 0.8611,-0.2034 0.2881,0 0.5423,0.0583 0.7626,0.1748 0.2203,0.1165 0.3919,0.2966 0.5148,0.5402 0.1229,0.2436 0.1843,0.5561 0.1843,0.9374 0,0.3771 -0.0614,0.6874 -0.1843,0.9311 -0.1229,0.2436 -0.2945,0.4247 -0.5148,0.5434 -0.2203,0.1186 -0.4745,0.178 -0.7626,0.178zm0.197 -0.8135c0.1737,0 0.3284,-0.035 0.4639,-0.1049 0.1356,-0.0699 0.2415,-0.1684 0.3178,-0.2955 0.0763,-0.1271 0.1144,-0.2733 0.1144,-0.4385 0,-0.1695 -0.0381,-0.3167 -0.1144,-0.4417 -0.0763,-0.125 -0.1822,-0.2224 -0.3178,-0.2923 -0.1356,-0.0699 -0.2902,-0.1049 -0.4639,-0.1049 -0.1737,0 -0.3284,0.035 -0.4639,0.1049 -0.1356,0.0699 -0.2426,0.1674 -0.3209,0.2923 -0.0784,0.125 -0.1176,0.2722 -0.1176,0.4417 0,0.1652 0.0392,0.3114 0.1176,0.4385 0.0784,0.1271 0.1854,0.2256 0.3209,0.2955 0.1356,0.0699 0.2902,0.1049 0.4639,0.1049z"/>
  </g>
 </g>
</svg>
