<?xml version="1.0" encoding="UTF-8"?>
<!DOCTYPE svg PUBLIC "-//W3C//DTD SVG 1.1//EN" "http://www.w3.org/Graphics/SVG/1.1/DTD/svg11.dtd">
<!-- Creator: CorelDRAW 2023 -->
<svg xmlns="http://www.w3.org/2000/svg" xml:space="preserve" width="847.495mm" height="129.467mm" version="1.1" style="shape-rendering:geometricPrecision; text-rendering:geometricPrecision; image-rendering:optimizeQuality; fill-rule:evenodd; clip-rule:evenodd"
viewBox="0 0 80.9148 12.3609"
 xmlns:xlink="http://www.w3.org/1999/xlink"
 xmlns:xodm="http://www.corel.com/coreldraw/odm/2003">
 <defs>
  <style type="text/css">
   <![CDATA[
    .fil1 {fill:#00AFEF}
    .fil0 {fill:#FEFEFE;fill-rule:nonzero}
   ]]>
  </style>
 </defs>
 <g id="Layer_x0020_1">
  <metadata id="CorelCorpID_0Corel-Layer"/>
  <path class="fil0" d="M17.8352 9.3405l0.5513 0 0 -5.2245 2.429 4.6184 0.4542 0 2.429 -4.6184 0 5.2245 0.5513 0 0 -6.23 -0.6484 0 -2.5574 4.9317 -2.5606 -4.9317 -0.6484 0 0 6.23zm11.8848 -2.2035c0,-1.3249 -1.0227,-2.2865 -2.3382,-2.2865 -1.3155,0 -2.3382,0.9616 -2.3382,2.2865 0,1.3249 1.0227,2.2865 2.3382,2.2865 1.3155,0 2.3382,-0.9616 2.3382,-2.2865zm-2.3382 -1.7822c1.0258,0 1.7869,0.758 1.7869,1.7822 0,1.0148 -0.7705,1.7822 -1.7869,1.7822 -1.0164,0 -1.7869,-0.7674 -1.7869,-1.7822 0,-1.0195 0.7658,-1.7822 1.7869,-1.7822zm3.572 3.9857l0 -0.8347c0.1738,0.2756 0.4229,0.4996 0.7439,0.6687 0.3211,0.1613 0.6844,0.249 1.0837,0.249 0.6343,0 1.1667,-0.2193 1.5927,-0.6593 0.4275,-0.4385 0.639,-0.9788 0.639,-1.6225 0,-0.6437 -0.2114,-1.1887 -0.639,-1.6319 -0.426,-0.4401 -0.9585,-0.6593 -1.5927,-0.6593 -0.3994,0 -0.7627,0.0877 -1.0837,0.2615 -0.321,0.1738 -0.5701,0.3978 -0.7439,0.6766l0 -2.902 -0.5513 0 0 6.4539 0.5513 0zm1.7916 -3.9857c0.4902,0 0.9036,0.1691 1.2341,0.5137 0.3257,0.343 0.4918,0.769 0.4918,1.2779 0,0.5027 -0.166,0.924 -0.4918,1.2685 -0.3304,0.3351 -0.7439,0.5043 -1.2341,0.5043 -0.5199,0 -0.9506,-0.1691 -1.2952,-0.5121 -0.3492,-0.343 -0.5246,-0.7627 -0.5246,-1.2654 0,-0.5074 0.1754,-0.9318 0.5246,-1.2748 0.3445,-0.343 0.7752,-0.5121 1.2952,-0.5121zm2.958 3.9857l0.5513 0 0 -4.407 -0.5513 0 0 4.407zm0.0282 -5.6411c0.1284,0.1284 0.3665,0.1284 0.4996,0 0.1284,-0.1269 0.1284,-0.3649 0,-0.4918 -0.1331,-0.1284 -0.3712,-0.1284 -0.4996,0 -0.1222,0.1269 -0.1222,0.3649 0.0063,0.4918l-0.0063 0zm2.0842 5.6411l0 -6.4602 -0.5513 0 0 6.4602 0.5513 0zm0.6888 -2.2051c0,0.6452 0.2208,1.184 0.6593,1.6241 0.4369,0.4448 0.9929,0.664 1.6601,0.664 0.7674,0 1.5348,-0.3211 1.967,-0.971l-0.4088 -0.2976c-0.368,0.4808 -0.9287,0.7643 -1.5489,0.7643 -0.9569,0 -1.7008,-0.6953 -1.765,-1.6475l3.8135 0c0.0188,-0.1284 0.0282,-0.2568 0.0282,-0.3806 -0.0047,-0.5795 -0.1973,-1.0618 -0.5826,-1.4549 -0.3868,-0.3884 -0.9068,-0.5857 -1.5536,-0.5857 -1.3155,0 -2.2693,0.9882 -2.2693,2.2849zm2.2693 -1.7807c0.8582,0 1.5489,0.5842 1.5943,1.4502l-3.2685 0c0.0689,-0.8943 0.8003,-1.4502 1.6742,-1.4502z"/>
  <path class="fil0" d="M78.4734 8.084c0.2262,0 0.4276,-0.0455 0.6041,-0.1365 0.1766,-0.091 0.3145,-0.2193 0.4138,-0.3848 0.0993,-0.1655 0.149,-0.3559 0.149,-0.571 0,-0.2207 -0.0497,-0.4124 -0.149,-0.5752 -0.0993,-0.1628 -0.2372,-0.2897 -0.4138,-0.3807 -0.1766,-0.091 -0.3779,-0.1365 -0.6041,-0.1365 -0.2262,0 -0.4276,0.0455 -0.6041,0.1365 -0.1766,0.091 -0.3159,0.2179 -0.4179,0.3807 -0.1021,0.1628 -0.1531,0.3545 -0.1531,0.5752 0,0.2152 0.051,0.4055 0.1531,0.571 0.1021,0.1655 0.2414,0.2938 0.4179,0.3848 0.1766,0.091 0.3779,0.1365 0.6041,0.1365zm-0.2566 1.0593c-0.4138,0 -0.7876,-0.0897 -1.1214,-0.269 -0.3338,-0.1793 -0.6014,-0.4304 -0.8028,-0.7531 -0.2014,-0.3228 -0.3021,-0.6993 -0.3021,-1.1297 0,-0.4359 0.1007,-0.8152 0.3021,-1.1379 0.2014,-0.3228 0.469,-0.5724 0.8028,-0.749 0.3338,-0.1766 0.7076,-0.2648 1.1214,-0.2648 0.3752,0 0.7062,0.0759 0.9931,0.2276 0.1869,0.0989 0.3469,0.2329 0.48,0.402l0 -0.5634 1.2248 0 0 3.7076c0,0.8276 -0.2152,1.4372 -0.6455,1.829 -0.4303,0.3917 -1.0483,0.5876 -1.8538,0.5876 -0.4193,0 -0.8235,-0.051 -1.2124,-0.1531 -0.389,-0.1021 -0.7131,-0.2552 -0.9724,-0.4593l0.5131 -0.9269c0.1876,0.1545 0.4262,0.2772 0.7159,0.3683 0.2897,0.091 0.5752,0.1365 0.8566,0.1365 0.4579,0 0.7903,-0.1021 0.9972,-0.3062 0.2069,-0.2041 0.3103,-0.5076 0.3103,-0.9103l0 -0.1941c-0.119,0.1332 -0.2569,0.242 -0.4138,0.3265 -0.2869,0.1545 -0.6179,0.2317 -0.9931,0.2317zm-7.4211 0.2152l0 -4.4524 1.2331 0 0 0.5288 0 0c0.1277,-0.1423 0.2795,-0.2607 0.4552,-0.3551 0.2979,-0.16 0.6372,-0.24 1.0179,-0.24 0.3531,0 0.669,0.0703 0.9476,0.211 0.2786,0.1407 0.4979,0.3559 0.6579,0.6455 0.16,0.2897 0.24,0.6607 0.24,1.1131l0 2.549 -1.291 0 0 -2.3504c0,-0.3586 -0.0786,-0.6235 -0.2359,-0.7945 -0.1572,-0.171 -0.3793,-0.2566 -0.6662,-0.2566 -0.2041,0 -0.3876,0.0428 -0.5503,0.1283 -0.1628,0.0855 -0.2897,0.2166 -0.3807,0.3931 -0.091,0.1766 -0.1365,0.4028 -0.1365,0.6786l0 2.2014 -1.291 0zm-1.6197 -5.0731c-0.2372,0 -0.4304,-0.069 -0.5793,-0.2069 -0.149,-0.1379 -0.2235,-0.309 -0.2235,-0.5131 0,-0.2041 0.0745,-0.3752 0.2235,-0.5131 0.149,-0.1379 0.3421,-0.2069 0.5793,-0.2069 0.2372,0 0.4303,0.0648 0.5793,0.1945 0.149,0.1297 0.2235,0.2966 0.2235,0.5007 0,0.2152 -0.0731,0.3931 -0.2193,0.5338 -0.1462,0.1407 -0.3407,0.211 -0.5834,0.211zm-0.6455 5.0731l0 -4.4524 1.291 0 0 4.4524 -1.291 0zm-2.2653 0l0 -6.1407 1.291 0 0 6.1407 -1.291 0zm-1.6197 -5.0731c-0.2372,0 -0.4304,-0.069 -0.5793,-0.2069 -0.149,-0.1379 -0.2235,-0.309 -0.2235,-0.5131 0,-0.2041 0.0745,-0.3752 0.2235,-0.5131 0.149,-0.1379 0.3421,-0.2069 0.5793,-0.2069 0.2372,0 0.4303,0.0648 0.5793,0.1945 0.149,0.1297 0.2235,0.2966 0.2235,0.5007 0,0.2152 -0.0731,0.3931 -0.2193,0.5338 -0.1462,0.1407 -0.3407,0.211 -0.5834,0.211zm-0.6455 5.0731l0 -4.4524 1.291 0 0 4.4524 -1.291 0zm-2.1494 0l0 -0.5533c-0.0972,0.1635 -0.2296,0.2955 -0.3972,0.3961 -0.2483,0.149 -0.5683,0.2234 -0.96,0.2234 -0.3476,0 -0.6455,-0.0593 -0.8938,-0.1779 -0.2483,-0.1186 -0.4386,-0.28 -0.571,-0.4841 -0.1324,-0.2041 -0.1986,-0.4331 -0.1986,-0.6869 0,-0.2648 0.0648,-0.4965 0.1945,-0.6952 0.1297,-0.1986 0.3352,-0.3545 0.6166,-0.4676 0.2814,-0.1131 0.6483,-0.1697 1.1007,-0.1697l1.0262 0c0,-0.2759 -0.0841,-0.491 -0.2524,-0.6455 -0.1683,-0.1545 -0.4262,-0.2317 -0.7738,-0.2317 -0.2372,0 -0.4703,0.0372 -0.6993,0.1117 -0.229,0.0745 -0.4235,0.1752 -0.5834,0.3021l-0.4635 -0.9021c0.2428,-0.171 0.5352,-0.3034 0.8772,-0.3972 0.3421,-0.0938 0.6897,-0.1407 1.0428,-0.1407 0.6786,0 1.2055,0.16 1.5807,0.48 0.3752,0.32 0.5628,0.8193 0.5628,1.4979l0 2.5407 -1.2083 0zm-0.0828 -1.4069l0 -0.4552 -0.8855 0c-0.3034,0 -0.5117,0.0496 -0.6248,0.149 -0.1131,0.0993 -0.1697,0.2235 -0.1697,0.3724 0,0.1655 0.0648,0.2965 0.1945,0.3931 0.1297,0.0966 0.3076,0.1448 0.5338,0.1448 0.2152,0 0.4083,-0.051 0.5793,-0.1531 0.171,-0.1021 0.2952,-0.2524 0.3724,-0.451zm-4.0528 1.4731c-0.5241,0 -0.9324,-0.1338 -1.2248,-0.4014 -0.2924,-0.2676 -0.4386,-0.6662 -0.4386,-1.1959l0 -1.9283 -0.6869 0 0 -0.9931 0.6869 0 0 -0.9848 1.291 0 0 0.9848 1.109 0 0 0.9931 -1.109 0 0 1.9117c0,0.1876 0.0497,0.3324 0.149,0.4345 0.0993,0.1021 0.2345,0.1531 0.4055,0.1531 0.2041,0 0.3779,-0.0552 0.5214,-0.1655l0.3476 0.9103c-0.1324,0.0938 -0.291,0.1641 -0.4759,0.211 -0.1848,0.0469 -0.3766,0.0703 -0.5752,0.0703zm-4.6073 0c-0.5076,0 -0.9531,-0.0993 -1.3366,-0.2979 -0.3834,-0.1986 -0.68,-0.4703 -0.8897,-0.8152 -0.2097,-0.3448 -0.3145,-0.7379 -0.3145,-1.1793 0,-0.4469 0.1034,-0.8428 0.3103,-1.1876 0.2069,-0.3448 0.4897,-0.6152 0.8483,-0.811 0.3586,-0.1959 0.7641,-0.2938 1.2166,-0.2938 0.4359,0 0.829,0.0924 1.1793,0.2772 0.3503,0.1848 0.6276,0.4497 0.8317,0.7945 0.2041,0.3448 0.3062,0.7572 0.3062,1.2372 0,0.0497 -0.0028,0.1062 -0.0083,0.1697 -0.0055,0.0635 -0.011,0.1228 -0.0166,0.1779l-2.6801 0 -0.5803 0 -0.1074 0c0.0267,0.1175 0.0693,0.2265 0.1277,0.3269 0.1076,0.1848 0.2593,0.3255 0.4552,0.4221 0.1959,0.0966 0.4262,0.1448 0.691,0.1448 0.2372,0 0.4455,-0.0359 0.6248,-0.1076 0.1793,-0.0717 0.3435,-0.1793 0.4924,-0.3228l0.6869 0.7448c-0.2041,0.2317 -0.4607,0.4097 -0.7697,0.5338 -0.309,0.1241 -0.6648,0.1862 -1.0676,0.1862zm-1.1334 -2.6814l0.5803 0 1.489 0c-0.0209,-0.1403 -0.0625,-0.2672 -0.1248,-0.3807 -0.0938,-0.171 -0.2234,-0.3048 -0.389,-0.4014 -0.1655,-0.0966 -0.3586,-0.1448 -0.5793,-0.1448 -0.2207,0 -0.4152,0.0483 -0.5835,0.1448 -0.1683,0.0966 -0.2993,0.2317 -0.3931,0.4055 -0.0606,0.1123 -0.1016,0.2378 -0.1231,0.3766l0.1234 0zm-6.2546 1.5145l1.2248 0c0.3862,0 0.7214,-0.0731 1.0055,-0.2193 0.2841,-0.1462 0.5048,-0.3545 0.6621,-0.6248 0.1572,-0.2703 0.2359,-0.5876 0.2359,-0.9517 0,-0.3697 -0.0786,-0.6883 -0.2359,-0.9559 -0.1572,-0.2676 -0.3779,-0.4745 -0.6621,-0.6207 -0.2841,-0.1462 -0.6193,-0.2193 -1.0055,-0.2193l-1.2248 0 0 3.5917zm-1.3407 1.1007l0 -5.7931 2.6317 0c0.629,0 1.1835,0.12 1.6635,0.36 0.48,0.24 0.8552,0.5752 1.1255,1.0055 0.2703,0.4303 0.4055,0.9407 0.4055,1.531 0,0.5848 -0.1352,1.0938 -0.4055,1.5269 -0.2703,0.4331 -0.6455,0.7697 -1.1255,1.0097 -0.48,0.24 -1.0345,0.36 -1.6635,0.36l-2.6317 0z"/>
  <path class="fil1" d="M2.5189 12.2962c-0.0189,-0.2128 -0.1334,-0.572 -0.1856,-0.7922 -0.6271,-2.6473 -1.4492,-6.8259 -0.2302,-9.2619 0.1873,-0.3744 0.5875,-0.8157 1.184,-0.7664 0.4533,0.0375 1.0298,0.4429 1.3028,0.6477 0.7414,0.5561 1.3095,1.2385 1.8798,2.0219 0.2725,0.3743 0.5205,0.7703 0.7834,1.169 0.0899,0.1363 0.0103,0.2203 -0.0619,0.3477 -0.574,1.012 -1.2531,2.6223 -1.6645,3.6786 -0.2346,0.6023 -0.8707,2.3861 -0.9384,2.9631l1.498 -0.0053c0.0685,-0.1244 0.1751,-0.5409 0.225,-0.7029 0.2176,-0.7059 0.4587,-1.3607 0.7218,-2.0474 0.162,-0.4227 0.959,-2.333 1.1453,-2.5355 0.3548,0.3934 1.3963,3.2454 1.6307,3.9153 0.1596,0.456 0.302,0.9129 0.4751,1.3696l1.4938 0.0028c-0.0318,-0.2391 -0.1482,-0.5477 -0.2154,-0.7807 -0.4715,-1.6353 -1.2024,-3.4125 -1.9278,-4.9125 -0.1089,-0.2252 -0.2218,-0.4353 -0.3319,-0.6579 -0.171,-0.3454 -0.3125,-0.4609 -0.2133,-0.6198 0.3691,-0.5913 0.7774,-1.1927 1.2057,-1.7367 0.5972,-0.7587 1.786,-1.9837 2.7853,-2.1056 1.5745,-0.1921 1.7609,2.9838 1.7747,4.0595 0.024,1.8702 -0.2709,3.4356 -0.659,5.1984 -0.1063,0.4828 -0.2366,1.0889 -0.383,1.5582l1.5111 -0.0053c0.0896,-0.4194 0.2259,-0.8534 0.3283,-1.2828 0.6547,-2.7452 1.2131,-7.2222 -0.1713,-9.5779 -1.0401,-1.7697 -2.6896,-1.7406 -4.274,-0.7501 -0.3766,0.2354 -1.0124,0.7703 -1.3063,1.0966 -0.5935,0.6588 -0.873,1.0274 -1.413,1.7537 -0.1081,0.1454 -0.2094,0.3095 -0.3287,0.4447 -0.2439,-0.2942 -0.4391,-0.6267 -0.6815,-0.9303 -0.7476,-0.9363 -1.2677,-1.6732 -2.3635,-2.3861 -0.6299,-0.4098 -1.5299,-0.821 -2.4816,-0.6072 -0.8502,0.191 -1.4489,0.7657 -1.7716,1.3943 -1.2134,2.3641 -0.9337,5.6151 -0.4367,8.2873 0.1559,0.8381 0.3576,1.7845 0.6051,2.5587l1.4893 -0.0026z"/>
  <path class="fil0" d="M66.5544 12.2923c0.0384,0.0398 0.0844,0.0584 0.1427,0.0584 0.0583,0 0.1043,-0.0185 0.1428,-0.0583 0.0742,-0.0768 0.0742,-0.2072 0.0002,-0.2834 -0.0384,-0.0385 -0.0844,-0.0563 -0.1427,-0.0564 -0.0583,-0 -0.1043,0.0178 -0.1428,0.0562 -0.0742,0.0761 -0.0742,0.2065 -0.0002,0.2834z"/>
  <path id="_1" class="fil0" d="M68.0082 12.3596c0.1874,0.0001 0.3624,-0.0458 0.521,-0.1363 0.1593,-0.0898 0.276,-0.2119 0.3543,-0.3663l-0.2552 -0.1566c-0.1271,0.223 -0.3564,0.3629 -0.6199,0.3627 -0.2031,-0.0001 -0.3699,-0.0682 -0.5043,-0.2048 -0.1344,-0.1346 -0.2009,-0.3028 -0.2008,-0.5018 0.0001,-0.199 0.0688,-0.3651 0.2055,-0.5016 0.1367,-0.1365 0.3035,-0.2043 0.4984,-0.2042 0.2718,0.0002 0.4927,0.1382 0.6291,0.3737l0.2561 -0.157c-0.085,-0.162 -0.205,-0.2884 -0.3601,-0.3784 -0.1544,-0.0907 -0.3294,-0.1347 -0.525,-0.1348 -0.2869,-0.0002 -0.5285,0.0958 -0.7256,0.2878 -0.1991,0.1948 -0.2981,0.4315 -0.2982,0.7143 -0.0002,0.2828 0.0985,0.5196 0.2933,0.7125 0.1948,0.1943 0.4404,0.2906 0.7314,0.2907z"/>
  <path id="_2" class="fil0" d="M70.7162 12.0729c0.195,-0.1927 0.294,-0.4315 0.2941,-0.7143 0.0002,-0.2828 -0.0985,-0.5216 -0.2933,-0.7146 -0.1955,-0.1923 -0.4411,-0.2885 -0.7328,-0.2887 -0.2917,-0.0002 -0.5374,0.0958 -0.7331,0.2878 -0.195,0.1928 -0.294,0.4315 -0.2941,0.7143 -0.0002,0.2828 0.0985,0.5216 0.2933,0.7146 0.1955,0.1923 0.4411,0.2885 0.7328,0.2887 0.2917,0.0002 0.5374,-0.0958 0.7331,-0.2878zm-1.2381 -1.2189c0.1353,-0.1344 0.3028,-0.2023 0.5059,-0.2022 0.2032,0.0001 0.3706,0.0682 0.505,0.2027 0.1351,0.1367 0.2016,0.3048 0.2015,0.5039 -0.0001,0.199 -0.0668,0.3671 -0.2021,0.5016 -0.1346,0.1365 -0.3021,0.2044 -0.5052,0.2042 -0.2031,-0.0001 -0.3706,-0.0682 -0.5057,-0.2048 -0.1344,-0.1346 -0.2009,-0.3028 -0.2008,-0.5018 0.0001,-0.199 0.0668,-0.3671 0.2014,-0.5036z"/>
  <path id="_3" class="fil0" d="M71.1556 12.2948c0.0384,0.0398 0.0844,0.0584 0.1427,0.0584 0.0583,0 0.1043,-0.0185 0.1428,-0.0582 0.0742,-0.0768 0.0742,-0.2072 0.0002,-0.2834 -0.0384,-0.0385 -0.0844,-0.0563 -0.1427,-0.0564 -0.0583,-0 -0.1043,0.0178 -0.1428,0.0562 -0.0742,0.0761 -0.0742,0.2065 -0.0002,0.2834z"/>
  <path id="_4" class="fil0" d="M72.1084 11.2357c0.0001,-0.1709 0.0585,-0.3116 0.1732,-0.4179 0.1147,-0.1063 0.2554,-0.1605 0.4242,-0.1604 0.3521,0.0002 0.5448,0.1973 0.5446,0.5727l-0.0006 1.0953 0.3198 0.0002 0.0006 -1.1736c0.0001,-0.2471 -0.0718,-0.442 -0.2152,-0.5848 -0.1447,-0.1401 -0.3437,-0.2102 -0.599,-0.2103 -0.1469,-0.0001 -0.2752,0.03 -0.3878,0.0918 -0.1146,0.0624 -0.1991,0.142 -0.2575,0.2366l0.0002 -0.2917 -0.3219 -0.0002 -0.0011 1.9313 0.3198 0.0002 0.0006 -1.0892z"/>
  <polygon id="_5" class="fil0" points="75.2898,12.3266 75.2899,12.0507 74.1836,12.0501 75.2324,10.665 75.2325,10.3953 73.827,10.3945 73.8268,10.6704 74.8611,10.671 73.8116,12.0561 73.8115,12.3258 "/>
 </g>
</svg>
