<?xml version="1.0" encoding="UTF-8"?>
<!DOCTYPE svg PUBLIC "-//W3C//DTD SVG 1.1//EN" "http://www.w3.org/Graphics/SVG/1.1/DTD/svg11.dtd">
<!-- Creator: CorelDRAW 2023 -->
<svg xmlns="http://www.w3.org/2000/svg" xml:space="preserve" width="188.078mm" height="141.633mm" version="1.1" style="shape-rendering:geometricPrecision; text-rendering:geometricPrecision; image-rendering:optimizeQuality; fill-rule:evenodd; clip-rule:evenodd"
viewBox="0 0 3.914 2.9474"
 xmlns:xlink="http://www.w3.org/1999/xlink"
 xmlns:xodm="http://www.corel.com/coreldraw/odm/2003">
 <defs>
  <style type="text/css">
   <![CDATA[
    .fil0 {fill:#00AFEF}
   ]]>
  </style>
 </defs>
 <g id="Layer_x0020_1">
  <metadata id="CorelCorpID_0Corel-Layer"/>
  <path class="fil0" d="M0.6034 2.9456c-0.0045,-0.051 -0.032,-0.137 -0.0445,-0.1898 -0.1502,-0.6342 -0.3472,-1.6352 -0.0552,-2.2187 0.0449,-0.0897 0.1407,-0.1954 0.2836,-0.1836 0.1086,0.009 0.2467,0.1061 0.3121,0.1552 0.1776,0.1332 0.3137,0.2967 0.4503,0.4843 0.0653,0.0897 0.1247,0.1845 0.1877,0.28 0.0215,0.0326 0.0025,0.0528 -0.0148,0.0833 -0.1375,0.2424 -0.3002,0.6282 -0.3987,0.8812 -0.0562,0.1443 -0.2086,0.5716 -0.2248,0.7098l0.3589 -0.0013c0.0164,-0.0298 0.0419,-0.1296 0.0539,-0.1684 0.0521,-0.1691 0.1099,-0.326 0.1729,-0.4905 0.0388,-0.1013 0.2297,-0.5589 0.2744,-0.6074 0.085,0.0942 0.3345,0.7775 0.3906,0.9379 0.0382,0.1092 0.0723,0.2187 0.1138,0.3281l0.3578 0.0007c-0.0076,-0.0573 -0.0355,-0.1312 -0.0516,-0.187 -0.1129,-0.3918 -0.288,-0.8175 -0.4618,-1.1768 -0.0261,-0.0539 -0.0531,-0.1043 -0.0795,-0.1576 -0.041,-0.0828 -0.0749,-0.1104 -0.0511,-0.1485 0.0884,-0.1417 0.1862,-0.2857 0.2888,-0.416 0.1431,-0.1817 0.4278,-0.4752 0.6672,-0.5044 0.3772,-0.046 0.4218,0.7148 0.4251,0.9725 0.0058,0.448 -0.0649,0.823 -0.1579,1.2453 -0.0255,0.1157 -0.0567,0.2608 -0.0917,0.3733l0.362 -0.0013c0.0215,-0.1005 0.0541,-0.2044 0.0786,-0.3073 0.1568,-0.6576 0.2906,-1.7301 -0.041,-2.2944 -0.2492,-0.4239 -0.6443,-0.417 -1.0239,-0.1797 -0.0902,0.0564 -0.2425,0.1845 -0.3129,0.2627 -0.1422,0.1578 -0.2091,0.2461 -0.3385,0.4201 -0.0259,0.0348 -0.0502,0.0741 -0.0787,0.1065 -0.0584,-0.0705 -0.1052,-0.1501 -0.1633,-0.2229 -0.1791,-0.2243 -0.3037,-0.4008 -0.5662,-0.5716 -0.1509,-0.0982 -0.3665,-0.1967 -0.5945,-0.1455 -0.2037,0.0457 -0.3471,0.1834 -0.4244,0.334 -0.2907,0.5663 -0.2237,1.3451 -0.1046,1.9853 0.0373,0.2008 0.0857,0.4275 0.145,0.6129l0.3568 -0.0006z"/>
 </g>
</svg>
